<?xml version="1.0" encoding="utf-8"?>
<!-- Generator: Adobe Illustrator 16.0.0, SVG Export Plug-In . SVG Version: 6.00 Build 0)  -->
<!DOCTYPE svg PUBLIC "-//W3C//DTD SVG 1.1//EN" "http://www.w3.org/Graphics/SVG/1.1/DTD/svg11.dtd">
<svg version="1.1" id="_x30_" xmlns="http://www.w3.org/2000/svg" xmlns:xlink="http://www.w3.org/1999/xlink" x="0px" y="0px"
	 width="166.539px" height="142.114px" viewBox="0 0 166.539 142.114" enable-background="new 0 0 166.539 142.114"
	 xml:space="preserve">
<g id="LWPOLYLINE">
	
		<polygon fill="none" stroke="#000000" stroke-width="0.7087" stroke-linecap="round" stroke-linejoin="round" stroke-miterlimit="10" points="
		37.034,134.915 76.633,134.915 76.633,132.108 78.937,132.108 78.937,122.028 76.633,122.028 76.633,107.987 78.937,107.987 
		78.937,98.124 76.633,98.124 76.633,95.315 37.034,95.315 37.034,98.124 34.729,98.124 34.729,107.987 37.034,107.987 
		37.034,122.028 34.729,122.028 34.729,132.108 37.034,132.108 	"/>
</g>
<g id="LWPOLYLINE_1_">
	
		<polygon fill="none" stroke="#000000" stroke-width="0.7087" stroke-linecap="round" stroke-linejoin="round" stroke-miterlimit="10" points="
		117.937,107.842 157.537,107.842 157.537,105.038 159.839,105.038 159.839,94.958 157.537,94.958 157.537,80.917 159.839,80.917 
		159.839,71.052 157.537,71.052 157.537,68.244 117.937,68.244 117.937,71.052 115.632,71.052 115.632,80.917 117.937,80.917 
		117.937,94.958 115.632,94.958 115.632,105.038 117.937,105.038 	"/>
</g>
<g id="LWPOLYLINE_2_">
	
		<polygon fill="none" stroke="#000000" stroke-width="0.7087" stroke-linecap="round" stroke-linejoin="round" stroke-miterlimit="10" points="
		9.867,80.915 49.466,80.915 49.466,78.107 51.77,78.107 51.77,68.027 49.466,68.027 49.466,53.987 51.77,53.987 51.77,44.123 
		49.466,44.123 49.466,41.315 9.867,41.315 9.867,44.123 7.563,44.123 7.563,53.987 9.867,53.987 9.867,68.027 7.563,68.027 
		7.563,78.107 9.867,78.107 	"/>
</g>
<g id="LWPOLYLINE_3_">
	
		<polygon fill="none" stroke="#000000" stroke-width="0.7087" stroke-linecap="round" stroke-linejoin="round" stroke-miterlimit="10" points="
		63.867,80.915 103.466,80.915 103.466,78.107 105.77,78.107 105.77,68.027 103.466,68.027 103.466,53.987 105.77,53.987 
		105.77,44.123 103.466,44.123 103.466,41.315 63.867,41.315 63.867,44.123 61.563,44.123 61.563,53.987 63.867,53.987 
		63.867,68.027 61.563,68.027 61.563,78.107 63.867,78.107 	"/>
</g>
<g id="LWPOLYLINE_4_">
	
		<rect fill="none" stroke="#000000" stroke-width="1.0095" stroke-linecap="round" stroke-linejoin="round" stroke-miterlimit="10" width="166.539" height="142.114"/>
</g>
</svg>
