G75*
G70*
%OFA0B0*%
%FSLAX24Y24*%
%IPPOS*%
%LPD*%
%AMOC8*
5,1,8,0,0,1.08239X$1,22.5*
%
%ADD10C,0.0966*%
%ADD11C,0.1092*%
%ADD12C,0.1655*%
%ADD13OC8,0.0760*%
%ADD14C,0.0434*%
%ADD15C,0.0806*%
%ADD16C,0.0825*%
%ADD17C,0.0600*%
%ADD18C,0.1380*%
%ADD19C,0.0476*%
D10*
X006430Y004930D03*
X008930Y005930D03*
X010180Y012430D03*
X012680Y013430D03*
X017680Y008680D03*
X020180Y009680D03*
X005180Y013430D03*
X002680Y012430D03*
D11*
X002180Y011430D03*
X006180Y011430D03*
X009680Y011430D03*
X013680Y011430D03*
X017180Y007680D03*
X021180Y007680D03*
X009930Y003930D03*
X005930Y003930D03*
D12*
X007930Y003930D03*
X004180Y011430D03*
X011680Y011430D03*
X019180Y007680D03*
D13*
X018180Y016180D03*
X018180Y017180D03*
X018180Y018180D03*
X018180Y019180D03*
X015180Y019180D03*
X015180Y018180D03*
X015180Y017180D03*
X015180Y016180D03*
D14*
X007046Y017930D03*
X005314Y017930D03*
D15*
X002180Y014930D03*
X009180Y016430D03*
X009680Y014930D03*
X010180Y019430D03*
X011180Y019430D03*
X017180Y011180D03*
X005930Y007430D03*
D16*
X008930Y007430D03*
X005180Y014930D03*
X010180Y016430D03*
X011180Y016430D03*
X012680Y014930D03*
X009180Y019430D03*
X020180Y011180D03*
D17*
X014180Y015920D02*
X014180Y016440D01*
X012680Y016440D02*
X012680Y015920D01*
X012680Y018920D02*
X012680Y019440D01*
X014180Y019440D02*
X014180Y018920D01*
D18*
X002180Y002180D03*
X002180Y017930D03*
X021180Y017930D03*
X021180Y002180D03*
D19*
X004930Y015930D03*
M02*
