%
M48
M72
T01C0.0236
T02C0.0320
T03C0.0354
T04C0.0591
T05C0.0675
T06C0.1300
T07C0.1575
%
T01
X4930Y15930
T02
X12680Y16180
X14180Y16180
X15180Y16180
X15180Y17180
X15180Y18180
X15180Y19180
X14180Y19180
X12680Y19180
X18180Y19180
X18180Y18180
X18180Y17180
X18180Y16180
T03
X17180Y11180
X20180Y11180
X12680Y14930
X11180Y16430
X10180Y16430
X9180Y16430
X9680Y14930
X7046Y17930
X5314Y17930
X5180Y14930
X2180Y14930
X9180Y19430
X10180Y19430
X11180Y19430
X8930Y7430
X5930Y7430
T04
X6430Y4930
X8930Y5930
X10180Y12430
X12680Y13430
X17680Y8680
X20180Y9680
X5180Y13430
X2680Y12430
T05
X2180Y11430
X6180Y11430
X9680Y11430
X13680Y11430
X17180Y7680
X21180Y7680
X9930Y3930
X5930Y3930
T06
X2180Y2180
X2180Y17930
X21180Y17930
X21180Y2180
T07
X19180Y7680
X11680Y11430
X4180Y11430
X7930Y3930
M30
