G75*
G70*
%OFA0B0*%
%FSLAX24Y24*%
%IPPOS*%
%LPD*%
%AMOC8*
5,1,8,0,0,1.08239X$1,22.5*
%
%ADD10C,0.0110*%
%ADD11C,0.0060*%
%ADD12C,0.0050*%
%ADD13C,0.0000*%
%ADD14C,0.0080*%
%ADD15C,0.0100*%
%ADD16C,0.0010*%
%ADD17R,0.0800X0.0200*%
%ADD18R,0.0200X0.0250*%
D10*
X012961Y001085D02*
X012961Y001676D01*
X013059Y001380D02*
X013354Y001085D01*
X013605Y001183D02*
X013605Y001380D01*
X013703Y001479D01*
X013900Y001479D01*
X013999Y001380D01*
X013999Y001282D01*
X013605Y001282D01*
X013605Y001183D02*
X013703Y001085D01*
X013900Y001085D01*
X014250Y001183D02*
X014250Y001479D01*
X014250Y001183D02*
X014348Y001085D01*
X014643Y001085D01*
X014643Y000987D02*
X014545Y000888D01*
X014446Y000888D01*
X014643Y000987D02*
X014643Y001479D01*
X014894Y001479D02*
X015189Y001479D01*
X015288Y001380D01*
X015288Y001183D01*
X015189Y001085D01*
X014894Y001085D01*
X014894Y001676D01*
X014778Y002135D02*
X015073Y002135D01*
X015324Y002135D02*
X015324Y002726D01*
X015073Y002529D02*
X014778Y002529D01*
X014679Y002430D01*
X014679Y002233D01*
X014778Y002135D01*
X014428Y002135D02*
X014428Y002430D01*
X014330Y002529D01*
X014133Y002529D01*
X014133Y002332D02*
X014428Y002332D01*
X014428Y002135D02*
X014133Y002135D01*
X014035Y002233D01*
X014133Y002332D01*
X013784Y002430D02*
X013390Y002430D01*
X013390Y002135D02*
X013390Y002726D01*
X013784Y002726D02*
X013784Y002135D01*
X013354Y001676D02*
X012961Y001282D01*
X013327Y003185D02*
X013524Y003185D01*
X013623Y003283D01*
X013623Y003776D01*
X013874Y003579D02*
X014169Y003579D01*
X014267Y003480D01*
X014267Y003185D01*
X014518Y003185D02*
X014518Y003776D01*
X014617Y003579D02*
X014813Y003579D01*
X014912Y003480D01*
X014912Y003185D01*
X015163Y003283D02*
X015261Y003382D01*
X015556Y003382D01*
X015556Y003480D02*
X015556Y003185D01*
X015261Y003185D01*
X015163Y003283D01*
X015261Y003579D02*
X015458Y003579D01*
X015556Y003480D01*
X015807Y003579D02*
X016103Y003579D01*
X016201Y003480D01*
X016201Y003283D01*
X016103Y003185D01*
X015807Y003185D01*
X015807Y002988D02*
X015807Y003579D01*
X016452Y003579D02*
X016452Y002988D01*
X016452Y003185D02*
X016747Y003185D01*
X016845Y003283D01*
X016845Y003480D01*
X016747Y003579D01*
X016452Y003579D01*
X017096Y003579D02*
X017096Y003283D01*
X017195Y003185D01*
X017490Y003185D01*
X017490Y003087D02*
X017392Y002988D01*
X017293Y002988D01*
X017490Y003087D02*
X017490Y003579D01*
X017329Y002529D02*
X017034Y002529D01*
X016935Y002430D01*
X016935Y002233D01*
X017034Y002135D01*
X017329Y002135D01*
X017329Y002037D02*
X017329Y002529D01*
X017329Y002037D02*
X017230Y001938D01*
X017132Y001938D01*
X017123Y001479D02*
X017025Y001479D01*
X016828Y001282D01*
X016828Y001085D02*
X016828Y001479D01*
X016577Y001380D02*
X016577Y001085D01*
X016282Y001085D01*
X016183Y001183D01*
X016282Y001282D01*
X016577Y001282D01*
X016577Y001380D02*
X016479Y001479D01*
X016282Y001479D01*
X015932Y001380D02*
X015932Y001183D01*
X015834Y001085D01*
X015637Y001085D01*
X015539Y001183D01*
X015539Y001380D01*
X015637Y001479D01*
X015834Y001479D01*
X015932Y001380D01*
X015959Y002135D02*
X015959Y002529D01*
X015861Y002529D01*
X015959Y002726D02*
X015959Y002824D01*
X016291Y002529D02*
X016586Y002529D01*
X016684Y002430D01*
X016684Y002135D01*
X016291Y002135D02*
X016291Y002529D01*
X016058Y002135D02*
X015861Y002135D01*
X015619Y002135D02*
X015324Y002332D01*
X015619Y002529D01*
X014617Y003579D02*
X014518Y003480D01*
X013874Y003579D02*
X013874Y003185D01*
X013327Y003185D02*
X013229Y003283D01*
X013229Y003776D01*
X017365Y001380D02*
X017365Y001183D01*
X017463Y001085D01*
X017759Y001085D01*
X017759Y001676D01*
X017759Y001479D02*
X017463Y001479D01*
X017365Y001380D01*
D11*
X007567Y007310D02*
X007397Y007423D01*
X007567Y007537D01*
X007397Y007650D02*
X007397Y007310D01*
X007255Y007367D02*
X007198Y007310D01*
X007085Y007310D01*
X007028Y007367D01*
X007255Y007594D01*
X007255Y007367D01*
X007255Y007594D02*
X007198Y007650D01*
X007085Y007650D01*
X007028Y007594D01*
X007028Y007367D01*
X006887Y007310D02*
X006660Y007310D01*
X006773Y007310D02*
X006773Y007650D01*
X006660Y007537D01*
X003817Y014810D02*
X003647Y014923D01*
X003817Y015037D01*
X003647Y015150D02*
X003647Y014810D01*
X003505Y014867D02*
X003448Y014810D01*
X003335Y014810D01*
X003278Y014867D01*
X003505Y015094D01*
X003505Y014867D01*
X003505Y015094D02*
X003448Y015150D01*
X003335Y015150D01*
X003278Y015094D01*
X003278Y014867D01*
X003137Y014810D02*
X002910Y014810D01*
X003023Y014810D02*
X003023Y015150D01*
X002910Y015037D01*
X008960Y017273D02*
X009073Y017160D01*
X008960Y017273D02*
X009300Y017273D01*
X009300Y017160D02*
X009300Y017387D01*
X009300Y017528D02*
X008960Y017528D01*
X009073Y017698D02*
X009187Y017528D01*
X009300Y017698D01*
X009243Y017835D02*
X009300Y017892D01*
X009300Y018005D01*
X009243Y018062D01*
X009130Y018062D01*
X009073Y018005D01*
X009073Y017949D01*
X009130Y017835D01*
X008960Y017835D01*
X008960Y018062D01*
X010060Y018080D02*
X010116Y018023D01*
X010173Y018023D01*
X010230Y018080D01*
X010230Y018194D01*
X010287Y018250D01*
X010343Y018250D01*
X010400Y018194D01*
X010400Y018080D01*
X010343Y018023D01*
X010287Y018023D01*
X010230Y018080D01*
X010230Y018194D02*
X010173Y018250D01*
X010116Y018250D01*
X010060Y018194D01*
X010060Y018080D01*
X010060Y017882D02*
X010116Y017768D01*
X010230Y017655D01*
X010230Y017825D01*
X010287Y017882D01*
X010343Y017882D01*
X010400Y017825D01*
X010400Y017712D01*
X010343Y017655D01*
X010230Y017655D01*
X010287Y018392D02*
X010287Y018562D01*
X010230Y018619D01*
X010116Y018619D01*
X010060Y018562D01*
X010060Y018392D01*
X010400Y018392D01*
X010287Y018505D02*
X010400Y018619D01*
X011060Y018562D02*
X011060Y018392D01*
X011400Y018392D01*
X011287Y018392D02*
X011287Y018562D01*
X011230Y018619D01*
X011116Y018619D01*
X011060Y018562D01*
X011287Y018505D02*
X011400Y018619D01*
X011343Y018250D02*
X011400Y018194D01*
X011400Y018080D01*
X011343Y018023D01*
X011287Y018023D01*
X011230Y018080D01*
X011230Y018194D01*
X011287Y018250D01*
X011343Y018250D01*
X011230Y018194D02*
X011173Y018250D01*
X011116Y018250D01*
X011060Y018194D01*
X011060Y018080D01*
X011116Y018023D01*
X011173Y018023D01*
X011230Y018080D01*
X011287Y017882D02*
X011230Y017825D01*
X011230Y017655D01*
X011343Y017655D01*
X011400Y017712D01*
X011400Y017825D01*
X011343Y017882D01*
X011287Y017882D01*
X011116Y017768D02*
X011230Y017655D01*
X011116Y017768D02*
X011060Y017882D01*
X012280Y018480D02*
X012280Y016880D01*
X012282Y016863D01*
X012286Y016846D01*
X012293Y016830D01*
X012303Y016816D01*
X012316Y016803D01*
X012330Y016793D01*
X012346Y016786D01*
X012363Y016782D01*
X012380Y016780D01*
X012980Y016780D01*
X012997Y016782D01*
X013014Y016786D01*
X013030Y016793D01*
X013044Y016803D01*
X013057Y016816D01*
X013067Y016830D01*
X013074Y016846D01*
X013078Y016863D01*
X013080Y016880D01*
X013080Y018480D01*
X013078Y018497D01*
X013074Y018514D01*
X013067Y018530D01*
X013057Y018544D01*
X013044Y018557D01*
X013030Y018567D01*
X013014Y018574D01*
X012997Y018578D01*
X012980Y018580D01*
X012380Y018580D01*
X012363Y018578D01*
X012346Y018574D01*
X012330Y018567D01*
X012316Y018557D01*
X012303Y018544D01*
X012293Y018530D01*
X012286Y018514D01*
X012282Y018497D01*
X012280Y018480D01*
X012430Y018080D02*
X012680Y017680D01*
X012930Y017680D01*
X012680Y017680D02*
X012680Y017430D01*
X012680Y017680D02*
X012430Y017680D01*
X012680Y017680D02*
X012680Y018280D01*
X012430Y018080D02*
X012930Y018080D01*
X012680Y017680D01*
X013780Y016880D02*
X013780Y018480D01*
X013782Y018497D01*
X013786Y018514D01*
X013793Y018530D01*
X013803Y018544D01*
X013816Y018557D01*
X013830Y018567D01*
X013846Y018574D01*
X013863Y018578D01*
X013880Y018580D01*
X014480Y018580D01*
X014497Y018578D01*
X014514Y018574D01*
X014530Y018567D01*
X014544Y018557D01*
X014557Y018544D01*
X014567Y018530D01*
X014574Y018514D01*
X014578Y018497D01*
X014580Y018480D01*
X014580Y016880D01*
X014578Y016863D01*
X014574Y016846D01*
X014567Y016830D01*
X014557Y016816D01*
X014544Y016803D01*
X014530Y016793D01*
X014514Y016786D01*
X014497Y016782D01*
X014480Y016780D01*
X013880Y016780D01*
X013863Y016782D01*
X013846Y016786D01*
X013830Y016793D01*
X013816Y016803D01*
X013803Y016816D01*
X013793Y016830D01*
X013786Y016846D01*
X013782Y016863D01*
X013780Y016880D01*
X014180Y017430D02*
X014180Y017680D01*
X014430Y017680D01*
X014180Y017680D02*
X013930Y017680D01*
X014180Y017680D02*
X013930Y018080D01*
X014430Y018080D01*
X014180Y017680D01*
X014180Y018280D01*
X016386Y018338D02*
X016533Y018338D01*
X016606Y018264D01*
X016680Y018098D02*
X016606Y018024D01*
X016606Y017804D01*
X016460Y017804D02*
X016900Y017804D01*
X016900Y018024D01*
X016827Y018098D01*
X016680Y018098D01*
X016606Y018495D02*
X016460Y018641D01*
X016900Y018641D01*
X016900Y018495D02*
X016900Y018788D01*
X016680Y018955D02*
X016680Y019249D01*
X016900Y019175D02*
X016460Y019175D01*
X016680Y018955D01*
X016606Y017641D02*
X016606Y017567D01*
X016753Y017420D01*
X016900Y017420D02*
X016606Y017420D01*
X016680Y017254D02*
X016606Y017180D01*
X016606Y016960D01*
X016460Y016960D02*
X016900Y016960D01*
X016900Y017180D01*
X016827Y017254D01*
X016680Y017254D01*
X011317Y015037D02*
X011147Y014923D01*
X011317Y014810D01*
X011147Y014810D02*
X011147Y015150D01*
X011005Y015094D02*
X010778Y014867D01*
X010835Y014810D01*
X010948Y014810D01*
X011005Y014867D01*
X011005Y015094D01*
X010948Y015150D01*
X010835Y015150D01*
X010778Y015094D01*
X010778Y014867D01*
X010637Y014810D02*
X010410Y014810D01*
X010523Y014810D02*
X010523Y015150D01*
X010410Y015037D01*
X017910Y011287D02*
X018023Y011400D01*
X018023Y011060D01*
X017910Y011060D02*
X018137Y011060D01*
X018278Y011117D02*
X018505Y011344D01*
X018505Y011117D01*
X018448Y011060D01*
X018335Y011060D01*
X018278Y011117D01*
X018278Y011344D01*
X018335Y011400D01*
X018448Y011400D01*
X018505Y011344D01*
X018647Y011400D02*
X018647Y011060D01*
X018647Y011173D02*
X018817Y011287D01*
X018647Y011173D02*
X018817Y011060D01*
D12*
X016180Y010680D02*
X016180Y004680D01*
X022180Y004680D01*
X022180Y010680D01*
X016180Y010680D01*
X014680Y008430D02*
X008680Y008430D01*
X008680Y014430D01*
X014680Y014430D01*
X014680Y008430D01*
X010930Y006930D02*
X010930Y000930D01*
X004930Y000930D01*
X004930Y006930D01*
X010930Y006930D01*
X007180Y008430D02*
X001180Y008430D01*
X001180Y014430D01*
X007180Y014430D01*
X007180Y008430D01*
X011705Y016805D02*
X011705Y017030D01*
X011780Y017105D01*
X012080Y017105D01*
X012155Y017030D01*
X012155Y016805D01*
X011705Y016805D01*
X011855Y017265D02*
X011705Y017416D01*
X012155Y017416D01*
X012155Y017566D02*
X012155Y017265D01*
X013205Y017340D02*
X013280Y017265D01*
X013205Y017340D02*
X013205Y017491D01*
X013280Y017566D01*
X013355Y017566D01*
X013655Y017265D01*
X013655Y017566D01*
X013580Y017105D02*
X013280Y017105D01*
X013205Y017030D01*
X013205Y016805D01*
X013655Y016805D01*
X013655Y017030D01*
X013580Y017105D01*
X017284Y015405D02*
X017284Y015030D01*
X017359Y014955D01*
X017509Y014955D01*
X017584Y015030D01*
X017584Y015405D01*
X017745Y015255D02*
X017895Y015405D01*
X017895Y014955D01*
X017745Y014955D02*
X018045Y014955D01*
D13*
X001530Y002180D02*
X001532Y002230D01*
X001538Y002280D01*
X001548Y002330D01*
X001561Y002378D01*
X001578Y002426D01*
X001599Y002472D01*
X001623Y002516D01*
X001651Y002558D01*
X001682Y002598D01*
X001716Y002635D01*
X001753Y002670D01*
X001792Y002701D01*
X001833Y002730D01*
X001877Y002755D01*
X001923Y002777D01*
X001970Y002795D01*
X002018Y002809D01*
X002067Y002820D01*
X002117Y002827D01*
X002167Y002830D01*
X002218Y002829D01*
X002268Y002824D01*
X002318Y002815D01*
X002366Y002803D01*
X002414Y002786D01*
X002460Y002766D01*
X002505Y002743D01*
X002548Y002716D01*
X002588Y002686D01*
X002626Y002653D01*
X002661Y002617D01*
X002694Y002578D01*
X002723Y002537D01*
X002749Y002494D01*
X002772Y002449D01*
X002791Y002402D01*
X002806Y002354D01*
X002818Y002305D01*
X002826Y002255D01*
X002830Y002205D01*
X002830Y002155D01*
X002826Y002105D01*
X002818Y002055D01*
X002806Y002006D01*
X002791Y001958D01*
X002772Y001911D01*
X002749Y001866D01*
X002723Y001823D01*
X002694Y001782D01*
X002661Y001743D01*
X002626Y001707D01*
X002588Y001674D01*
X002548Y001644D01*
X002505Y001617D01*
X002460Y001594D01*
X002414Y001574D01*
X002366Y001557D01*
X002318Y001545D01*
X002268Y001536D01*
X002218Y001531D01*
X002167Y001530D01*
X002117Y001533D01*
X002067Y001540D01*
X002018Y001551D01*
X001970Y001565D01*
X001923Y001583D01*
X001877Y001605D01*
X001833Y001630D01*
X001792Y001659D01*
X001753Y001690D01*
X001716Y001725D01*
X001682Y001762D01*
X001651Y001802D01*
X001623Y001844D01*
X001599Y001888D01*
X001578Y001934D01*
X001561Y001982D01*
X001548Y002030D01*
X001538Y002080D01*
X001532Y002130D01*
X001530Y002180D01*
X007143Y003930D02*
X007145Y003986D01*
X007151Y004041D01*
X007161Y004095D01*
X007174Y004149D01*
X007192Y004202D01*
X007213Y004253D01*
X007237Y004303D01*
X007265Y004351D01*
X007297Y004397D01*
X007331Y004441D01*
X007369Y004482D01*
X007409Y004520D01*
X007452Y004555D01*
X007497Y004587D01*
X007545Y004616D01*
X007594Y004642D01*
X007645Y004664D01*
X007697Y004682D01*
X007751Y004696D01*
X007806Y004707D01*
X007861Y004714D01*
X007916Y004717D01*
X007972Y004716D01*
X008027Y004711D01*
X008082Y004702D01*
X008136Y004690D01*
X008189Y004673D01*
X008241Y004653D01*
X008291Y004629D01*
X008339Y004602D01*
X008386Y004572D01*
X008430Y004538D01*
X008472Y004501D01*
X008510Y004461D01*
X008547Y004419D01*
X008580Y004374D01*
X008609Y004328D01*
X008636Y004279D01*
X008658Y004228D01*
X008678Y004176D01*
X008693Y004122D01*
X008705Y004068D01*
X008713Y004013D01*
X008717Y003958D01*
X008717Y003902D01*
X008713Y003847D01*
X008705Y003792D01*
X008693Y003738D01*
X008678Y003684D01*
X008658Y003632D01*
X008636Y003581D01*
X008609Y003532D01*
X008580Y003486D01*
X008547Y003441D01*
X008510Y003399D01*
X008472Y003359D01*
X008430Y003322D01*
X008386Y003288D01*
X008339Y003258D01*
X008291Y003231D01*
X008241Y003207D01*
X008189Y003187D01*
X008136Y003170D01*
X008082Y003158D01*
X008027Y003149D01*
X007972Y003144D01*
X007916Y003143D01*
X007861Y003146D01*
X007806Y003153D01*
X007751Y003164D01*
X007697Y003178D01*
X007645Y003196D01*
X007594Y003218D01*
X007545Y003244D01*
X007497Y003273D01*
X007452Y003305D01*
X007409Y003340D01*
X007369Y003378D01*
X007331Y003419D01*
X007297Y003463D01*
X007265Y003509D01*
X007237Y003557D01*
X007213Y003607D01*
X007192Y003658D01*
X007174Y003711D01*
X007161Y003765D01*
X007151Y003819D01*
X007145Y003874D01*
X007143Y003930D01*
X003393Y011430D02*
X003395Y011486D01*
X003401Y011541D01*
X003411Y011595D01*
X003424Y011649D01*
X003442Y011702D01*
X003463Y011753D01*
X003487Y011803D01*
X003515Y011851D01*
X003547Y011897D01*
X003581Y011941D01*
X003619Y011982D01*
X003659Y012020D01*
X003702Y012055D01*
X003747Y012087D01*
X003795Y012116D01*
X003844Y012142D01*
X003895Y012164D01*
X003947Y012182D01*
X004001Y012196D01*
X004056Y012207D01*
X004111Y012214D01*
X004166Y012217D01*
X004222Y012216D01*
X004277Y012211D01*
X004332Y012202D01*
X004386Y012190D01*
X004439Y012173D01*
X004491Y012153D01*
X004541Y012129D01*
X004589Y012102D01*
X004636Y012072D01*
X004680Y012038D01*
X004722Y012001D01*
X004760Y011961D01*
X004797Y011919D01*
X004830Y011874D01*
X004859Y011828D01*
X004886Y011779D01*
X004908Y011728D01*
X004928Y011676D01*
X004943Y011622D01*
X004955Y011568D01*
X004963Y011513D01*
X004967Y011458D01*
X004967Y011402D01*
X004963Y011347D01*
X004955Y011292D01*
X004943Y011238D01*
X004928Y011184D01*
X004908Y011132D01*
X004886Y011081D01*
X004859Y011032D01*
X004830Y010986D01*
X004797Y010941D01*
X004760Y010899D01*
X004722Y010859D01*
X004680Y010822D01*
X004636Y010788D01*
X004589Y010758D01*
X004541Y010731D01*
X004491Y010707D01*
X004439Y010687D01*
X004386Y010670D01*
X004332Y010658D01*
X004277Y010649D01*
X004222Y010644D01*
X004166Y010643D01*
X004111Y010646D01*
X004056Y010653D01*
X004001Y010664D01*
X003947Y010678D01*
X003895Y010696D01*
X003844Y010718D01*
X003795Y010744D01*
X003747Y010773D01*
X003702Y010805D01*
X003659Y010840D01*
X003619Y010878D01*
X003581Y010919D01*
X003547Y010963D01*
X003515Y011009D01*
X003487Y011057D01*
X003463Y011107D01*
X003442Y011158D01*
X003424Y011211D01*
X003411Y011265D01*
X003401Y011319D01*
X003395Y011374D01*
X003393Y011430D01*
X001530Y017930D02*
X001532Y017980D01*
X001538Y018030D01*
X001548Y018080D01*
X001561Y018128D01*
X001578Y018176D01*
X001599Y018222D01*
X001623Y018266D01*
X001651Y018308D01*
X001682Y018348D01*
X001716Y018385D01*
X001753Y018420D01*
X001792Y018451D01*
X001833Y018480D01*
X001877Y018505D01*
X001923Y018527D01*
X001970Y018545D01*
X002018Y018559D01*
X002067Y018570D01*
X002117Y018577D01*
X002167Y018580D01*
X002218Y018579D01*
X002268Y018574D01*
X002318Y018565D01*
X002366Y018553D01*
X002414Y018536D01*
X002460Y018516D01*
X002505Y018493D01*
X002548Y018466D01*
X002588Y018436D01*
X002626Y018403D01*
X002661Y018367D01*
X002694Y018328D01*
X002723Y018287D01*
X002749Y018244D01*
X002772Y018199D01*
X002791Y018152D01*
X002806Y018104D01*
X002818Y018055D01*
X002826Y018005D01*
X002830Y017955D01*
X002830Y017905D01*
X002826Y017855D01*
X002818Y017805D01*
X002806Y017756D01*
X002791Y017708D01*
X002772Y017661D01*
X002749Y017616D01*
X002723Y017573D01*
X002694Y017532D01*
X002661Y017493D01*
X002626Y017457D01*
X002588Y017424D01*
X002548Y017394D01*
X002505Y017367D01*
X002460Y017344D01*
X002414Y017324D01*
X002366Y017307D01*
X002318Y017295D01*
X002268Y017286D01*
X002218Y017281D01*
X002167Y017280D01*
X002117Y017283D01*
X002067Y017290D01*
X002018Y017301D01*
X001970Y017315D01*
X001923Y017333D01*
X001877Y017355D01*
X001833Y017380D01*
X001792Y017409D01*
X001753Y017440D01*
X001716Y017475D01*
X001682Y017512D01*
X001651Y017552D01*
X001623Y017594D01*
X001599Y017638D01*
X001578Y017684D01*
X001561Y017732D01*
X001548Y017780D01*
X001538Y017830D01*
X001532Y017880D01*
X001530Y017930D01*
X005137Y017930D02*
X005139Y017956D01*
X005145Y017982D01*
X005155Y018007D01*
X005168Y018030D01*
X005184Y018050D01*
X005204Y018068D01*
X005226Y018083D01*
X005249Y018095D01*
X005275Y018103D01*
X005301Y018107D01*
X005327Y018107D01*
X005353Y018103D01*
X005379Y018095D01*
X005403Y018083D01*
X005424Y018068D01*
X005444Y018050D01*
X005460Y018030D01*
X005473Y018007D01*
X005483Y017982D01*
X005489Y017956D01*
X005491Y017930D01*
X005489Y017904D01*
X005483Y017878D01*
X005473Y017853D01*
X005460Y017830D01*
X005444Y017810D01*
X005424Y017792D01*
X005402Y017777D01*
X005379Y017765D01*
X005353Y017757D01*
X005327Y017753D01*
X005301Y017753D01*
X005275Y017757D01*
X005249Y017765D01*
X005225Y017777D01*
X005204Y017792D01*
X005184Y017810D01*
X005168Y017830D01*
X005155Y017853D01*
X005145Y017878D01*
X005139Y017904D01*
X005137Y017930D01*
X006869Y017930D02*
X006871Y017956D01*
X006877Y017982D01*
X006887Y018007D01*
X006900Y018030D01*
X006916Y018050D01*
X006936Y018068D01*
X006958Y018083D01*
X006981Y018095D01*
X007007Y018103D01*
X007033Y018107D01*
X007059Y018107D01*
X007085Y018103D01*
X007111Y018095D01*
X007135Y018083D01*
X007156Y018068D01*
X007176Y018050D01*
X007192Y018030D01*
X007205Y018007D01*
X007215Y017982D01*
X007221Y017956D01*
X007223Y017930D01*
X007221Y017904D01*
X007215Y017878D01*
X007205Y017853D01*
X007192Y017830D01*
X007176Y017810D01*
X007156Y017792D01*
X007134Y017777D01*
X007111Y017765D01*
X007085Y017757D01*
X007059Y017753D01*
X007033Y017753D01*
X007007Y017757D01*
X006981Y017765D01*
X006957Y017777D01*
X006936Y017792D01*
X006916Y017810D01*
X006900Y017830D01*
X006887Y017853D01*
X006877Y017878D01*
X006871Y017904D01*
X006869Y017930D01*
X010893Y011430D02*
X010895Y011486D01*
X010901Y011541D01*
X010911Y011595D01*
X010924Y011649D01*
X010942Y011702D01*
X010963Y011753D01*
X010987Y011803D01*
X011015Y011851D01*
X011047Y011897D01*
X011081Y011941D01*
X011119Y011982D01*
X011159Y012020D01*
X011202Y012055D01*
X011247Y012087D01*
X011295Y012116D01*
X011344Y012142D01*
X011395Y012164D01*
X011447Y012182D01*
X011501Y012196D01*
X011556Y012207D01*
X011611Y012214D01*
X011666Y012217D01*
X011722Y012216D01*
X011777Y012211D01*
X011832Y012202D01*
X011886Y012190D01*
X011939Y012173D01*
X011991Y012153D01*
X012041Y012129D01*
X012089Y012102D01*
X012136Y012072D01*
X012180Y012038D01*
X012222Y012001D01*
X012260Y011961D01*
X012297Y011919D01*
X012330Y011874D01*
X012359Y011828D01*
X012386Y011779D01*
X012408Y011728D01*
X012428Y011676D01*
X012443Y011622D01*
X012455Y011568D01*
X012463Y011513D01*
X012467Y011458D01*
X012467Y011402D01*
X012463Y011347D01*
X012455Y011292D01*
X012443Y011238D01*
X012428Y011184D01*
X012408Y011132D01*
X012386Y011081D01*
X012359Y011032D01*
X012330Y010986D01*
X012297Y010941D01*
X012260Y010899D01*
X012222Y010859D01*
X012180Y010822D01*
X012136Y010788D01*
X012089Y010758D01*
X012041Y010731D01*
X011991Y010707D01*
X011939Y010687D01*
X011886Y010670D01*
X011832Y010658D01*
X011777Y010649D01*
X011722Y010644D01*
X011666Y010643D01*
X011611Y010646D01*
X011556Y010653D01*
X011501Y010664D01*
X011447Y010678D01*
X011395Y010696D01*
X011344Y010718D01*
X011295Y010744D01*
X011247Y010773D01*
X011202Y010805D01*
X011159Y010840D01*
X011119Y010878D01*
X011081Y010919D01*
X011047Y010963D01*
X011015Y011009D01*
X010987Y011057D01*
X010963Y011107D01*
X010942Y011158D01*
X010924Y011211D01*
X010911Y011265D01*
X010901Y011319D01*
X010895Y011374D01*
X010893Y011430D01*
X018393Y007680D02*
X018395Y007736D01*
X018401Y007791D01*
X018411Y007845D01*
X018424Y007899D01*
X018442Y007952D01*
X018463Y008003D01*
X018487Y008053D01*
X018515Y008101D01*
X018547Y008147D01*
X018581Y008191D01*
X018619Y008232D01*
X018659Y008270D01*
X018702Y008305D01*
X018747Y008337D01*
X018795Y008366D01*
X018844Y008392D01*
X018895Y008414D01*
X018947Y008432D01*
X019001Y008446D01*
X019056Y008457D01*
X019111Y008464D01*
X019166Y008467D01*
X019222Y008466D01*
X019277Y008461D01*
X019332Y008452D01*
X019386Y008440D01*
X019439Y008423D01*
X019491Y008403D01*
X019541Y008379D01*
X019589Y008352D01*
X019636Y008322D01*
X019680Y008288D01*
X019722Y008251D01*
X019760Y008211D01*
X019797Y008169D01*
X019830Y008124D01*
X019859Y008078D01*
X019886Y008029D01*
X019908Y007978D01*
X019928Y007926D01*
X019943Y007872D01*
X019955Y007818D01*
X019963Y007763D01*
X019967Y007708D01*
X019967Y007652D01*
X019963Y007597D01*
X019955Y007542D01*
X019943Y007488D01*
X019928Y007434D01*
X019908Y007382D01*
X019886Y007331D01*
X019859Y007282D01*
X019830Y007236D01*
X019797Y007191D01*
X019760Y007149D01*
X019722Y007109D01*
X019680Y007072D01*
X019636Y007038D01*
X019589Y007008D01*
X019541Y006981D01*
X019491Y006957D01*
X019439Y006937D01*
X019386Y006920D01*
X019332Y006908D01*
X019277Y006899D01*
X019222Y006894D01*
X019166Y006893D01*
X019111Y006896D01*
X019056Y006903D01*
X019001Y006914D01*
X018947Y006928D01*
X018895Y006946D01*
X018844Y006968D01*
X018795Y006994D01*
X018747Y007023D01*
X018702Y007055D01*
X018659Y007090D01*
X018619Y007128D01*
X018581Y007169D01*
X018547Y007213D01*
X018515Y007259D01*
X018487Y007307D01*
X018463Y007357D01*
X018442Y007408D01*
X018424Y007461D01*
X018411Y007515D01*
X018401Y007569D01*
X018395Y007624D01*
X018393Y007680D01*
X020530Y002180D02*
X020532Y002230D01*
X020538Y002280D01*
X020548Y002330D01*
X020561Y002378D01*
X020578Y002426D01*
X020599Y002472D01*
X020623Y002516D01*
X020651Y002558D01*
X020682Y002598D01*
X020716Y002635D01*
X020753Y002670D01*
X020792Y002701D01*
X020833Y002730D01*
X020877Y002755D01*
X020923Y002777D01*
X020970Y002795D01*
X021018Y002809D01*
X021067Y002820D01*
X021117Y002827D01*
X021167Y002830D01*
X021218Y002829D01*
X021268Y002824D01*
X021318Y002815D01*
X021366Y002803D01*
X021414Y002786D01*
X021460Y002766D01*
X021505Y002743D01*
X021548Y002716D01*
X021588Y002686D01*
X021626Y002653D01*
X021661Y002617D01*
X021694Y002578D01*
X021723Y002537D01*
X021749Y002494D01*
X021772Y002449D01*
X021791Y002402D01*
X021806Y002354D01*
X021818Y002305D01*
X021826Y002255D01*
X021830Y002205D01*
X021830Y002155D01*
X021826Y002105D01*
X021818Y002055D01*
X021806Y002006D01*
X021791Y001958D01*
X021772Y001911D01*
X021749Y001866D01*
X021723Y001823D01*
X021694Y001782D01*
X021661Y001743D01*
X021626Y001707D01*
X021588Y001674D01*
X021548Y001644D01*
X021505Y001617D01*
X021460Y001594D01*
X021414Y001574D01*
X021366Y001557D01*
X021318Y001545D01*
X021268Y001536D01*
X021218Y001531D01*
X021167Y001530D01*
X021117Y001533D01*
X021067Y001540D01*
X021018Y001551D01*
X020970Y001565D01*
X020923Y001583D01*
X020877Y001605D01*
X020833Y001630D01*
X020792Y001659D01*
X020753Y001690D01*
X020716Y001725D01*
X020682Y001762D01*
X020651Y001802D01*
X020623Y001844D01*
X020599Y001888D01*
X020578Y001934D01*
X020561Y001982D01*
X020548Y002030D01*
X020538Y002080D01*
X020532Y002130D01*
X020530Y002180D01*
X020530Y017930D02*
X020532Y017980D01*
X020538Y018030D01*
X020548Y018080D01*
X020561Y018128D01*
X020578Y018176D01*
X020599Y018222D01*
X020623Y018266D01*
X020651Y018308D01*
X020682Y018348D01*
X020716Y018385D01*
X020753Y018420D01*
X020792Y018451D01*
X020833Y018480D01*
X020877Y018505D01*
X020923Y018527D01*
X020970Y018545D01*
X021018Y018559D01*
X021067Y018570D01*
X021117Y018577D01*
X021167Y018580D01*
X021218Y018579D01*
X021268Y018574D01*
X021318Y018565D01*
X021366Y018553D01*
X021414Y018536D01*
X021460Y018516D01*
X021505Y018493D01*
X021548Y018466D01*
X021588Y018436D01*
X021626Y018403D01*
X021661Y018367D01*
X021694Y018328D01*
X021723Y018287D01*
X021749Y018244D01*
X021772Y018199D01*
X021791Y018152D01*
X021806Y018104D01*
X021818Y018055D01*
X021826Y018005D01*
X021830Y017955D01*
X021830Y017905D01*
X021826Y017855D01*
X021818Y017805D01*
X021806Y017756D01*
X021791Y017708D01*
X021772Y017661D01*
X021749Y017616D01*
X021723Y017573D01*
X021694Y017532D01*
X021661Y017493D01*
X021626Y017457D01*
X021588Y017424D01*
X021548Y017394D01*
X021505Y017367D01*
X021460Y017344D01*
X021414Y017324D01*
X021366Y017307D01*
X021318Y017295D01*
X021268Y017286D01*
X021218Y017281D01*
X021167Y017280D01*
X021117Y017283D01*
X021067Y017290D01*
X021018Y017301D01*
X020970Y017315D01*
X020923Y017333D01*
X020877Y017355D01*
X020833Y017380D01*
X020792Y017409D01*
X020753Y017440D01*
X020716Y017475D01*
X020682Y017512D01*
X020651Y017552D01*
X020623Y017594D01*
X020599Y017638D01*
X020578Y017684D01*
X020561Y017732D01*
X020548Y017780D01*
X020538Y017830D01*
X020532Y017880D01*
X020530Y017930D01*
D14*
X017680Y019680D02*
X017680Y015680D01*
X017280Y015680D01*
X017080Y015680D01*
X017280Y015680D02*
X015680Y015680D01*
X015680Y019680D01*
X017680Y019680D01*
X012180Y015230D02*
X012180Y014930D01*
X012280Y014930D01*
X012180Y014930D02*
X012180Y014630D01*
X010180Y014630D01*
X010180Y014930D01*
X010080Y014930D01*
X010180Y014930D02*
X010180Y015230D01*
X012180Y015230D01*
X011480Y016930D02*
X011180Y016930D01*
X011180Y016830D01*
X011180Y016930D02*
X010880Y016930D01*
X010880Y018930D01*
X011180Y018930D01*
X011180Y019030D01*
X011180Y018930D02*
X011480Y018930D01*
X011480Y016930D01*
X010480Y016930D02*
X010180Y016930D01*
X010180Y016830D01*
X010180Y016930D02*
X009880Y016930D01*
X009880Y018930D01*
X010180Y018930D01*
X010180Y019030D01*
X010180Y018930D02*
X010480Y018930D01*
X010480Y016930D01*
X009480Y016930D02*
X009180Y016930D01*
X009180Y016830D01*
X009180Y016930D02*
X008880Y016930D01*
X008880Y018930D01*
X009180Y018930D01*
X009180Y019030D01*
X009180Y018930D02*
X009480Y018930D01*
X009480Y016930D01*
X007676Y017615D02*
X007676Y018442D01*
X007400Y016631D02*
X007046Y016631D01*
X005314Y016631D02*
X004960Y016631D01*
X004684Y017615D02*
X004684Y018442D01*
X004680Y015230D02*
X002680Y015230D01*
X002680Y014930D01*
X002580Y014930D01*
X002680Y014930D02*
X002680Y014630D01*
X004680Y014630D01*
X004680Y014930D01*
X004780Y014930D01*
X004680Y014930D02*
X004680Y015230D01*
X006430Y007730D02*
X006430Y007430D01*
X006330Y007430D01*
X006430Y007430D02*
X006430Y007130D01*
X008430Y007130D01*
X008430Y007430D01*
X008530Y007430D01*
X008430Y007430D02*
X008430Y007730D01*
X006430Y007730D01*
X017580Y011180D02*
X017680Y011180D01*
X017680Y011480D01*
X019680Y011480D01*
X019680Y011180D01*
X019780Y011180D01*
X019680Y011180D02*
X019680Y010880D01*
X017680Y010880D01*
X017680Y011180D01*
D15*
X016897Y016180D02*
X016899Y016213D01*
X016905Y016246D01*
X016915Y016279D01*
X016928Y016309D01*
X016945Y016338D01*
X016966Y016365D01*
X016989Y016389D01*
X017015Y016410D01*
X017043Y016428D01*
X017074Y016442D01*
X017105Y016453D01*
X017138Y016460D01*
X017172Y016463D01*
X017205Y016462D01*
X017238Y016457D01*
X017271Y016448D01*
X017302Y016435D01*
X017331Y016419D01*
X017358Y016400D01*
X017383Y016377D01*
X017405Y016352D01*
X017424Y016324D01*
X017439Y016294D01*
X017451Y016263D01*
X017459Y016230D01*
X017463Y016197D01*
X017463Y016163D01*
X017459Y016130D01*
X017451Y016097D01*
X017439Y016066D01*
X017424Y016036D01*
X017405Y016008D01*
X017383Y015983D01*
X017358Y015960D01*
X017331Y015941D01*
X017302Y015925D01*
X017271Y015912D01*
X017238Y015903D01*
X017205Y015898D01*
X017172Y015897D01*
X017138Y015900D01*
X017105Y015907D01*
X017074Y015918D01*
X017043Y015932D01*
X017015Y015950D01*
X016989Y015971D01*
X016966Y015995D01*
X016945Y016022D01*
X016928Y016051D01*
X016915Y016081D01*
X016905Y016114D01*
X016899Y016147D01*
X016897Y016180D01*
D16*
X017685Y011835D02*
X017760Y011835D01*
X017785Y011810D01*
X017785Y011760D01*
X017760Y011735D01*
X017685Y011735D01*
X017685Y011685D02*
X017685Y011835D01*
X017735Y011735D02*
X017785Y011685D01*
X017832Y011685D02*
X017932Y011785D01*
X017932Y011810D01*
X017907Y011835D01*
X017857Y011835D01*
X017832Y011810D01*
X017832Y011685D02*
X017932Y011685D01*
X010432Y015435D02*
X010332Y015435D01*
X010285Y015435D02*
X010235Y015485D01*
X010260Y015485D02*
X010185Y015485D01*
X010185Y015435D02*
X010185Y015585D01*
X010260Y015585D01*
X010285Y015560D01*
X010285Y015510D01*
X010260Y015485D01*
X010332Y015535D02*
X010382Y015585D01*
X010382Y015435D01*
X008675Y016935D02*
X008525Y016935D01*
X008525Y017010D01*
X008550Y017035D01*
X008600Y017035D01*
X008625Y017010D01*
X008625Y016935D01*
X008625Y016985D02*
X008675Y017035D01*
X008650Y017082D02*
X008675Y017107D01*
X008675Y017157D01*
X008650Y017182D01*
X008625Y017182D01*
X008600Y017157D01*
X008600Y017082D01*
X008650Y017082D01*
X008600Y017082D02*
X008550Y017132D01*
X008525Y017182D01*
X006810Y018993D02*
X006835Y019018D01*
X006835Y019043D01*
X006810Y019068D01*
X006685Y019068D01*
X006685Y019043D02*
X006685Y019093D01*
X006685Y019140D02*
X006685Y019215D01*
X006710Y019240D01*
X006760Y019240D01*
X006785Y019215D01*
X006785Y019140D01*
X006835Y019140D02*
X006685Y019140D01*
X006735Y019288D02*
X006685Y019338D01*
X006835Y019338D01*
X006835Y019288D02*
X006835Y019388D01*
X010685Y018863D02*
X010760Y018788D01*
X010760Y018888D01*
X010835Y018863D02*
X010685Y018863D01*
X010710Y018740D02*
X010760Y018740D01*
X010785Y018715D01*
X010785Y018640D01*
X010835Y018640D02*
X010685Y018640D01*
X010685Y018715D01*
X010710Y018740D01*
X010785Y018690D02*
X010835Y018740D01*
X011685Y018715D02*
X011710Y018740D01*
X011760Y018740D01*
X011785Y018715D01*
X011785Y018640D01*
X011835Y018640D02*
X011685Y018640D01*
X011685Y018715D01*
X011710Y018788D02*
X011685Y018813D01*
X011685Y018863D01*
X011710Y018888D01*
X011735Y018888D01*
X011760Y018863D01*
X011785Y018888D01*
X011810Y018888D01*
X011835Y018863D01*
X011835Y018813D01*
X011810Y018788D01*
X011835Y018740D02*
X011785Y018690D01*
X011760Y018838D02*
X011760Y018863D01*
X002932Y015585D02*
X002832Y015585D01*
X002832Y015510D01*
X002882Y015535D01*
X002907Y015535D01*
X002932Y015510D01*
X002932Y015460D01*
X002907Y015435D01*
X002857Y015435D01*
X002832Y015460D01*
X002785Y015435D02*
X002735Y015485D01*
X002760Y015485D02*
X002685Y015485D01*
X002685Y015435D02*
X002685Y015585D01*
X002760Y015585D01*
X002785Y015560D01*
X002785Y015510D01*
X002760Y015485D01*
X006435Y008085D02*
X006510Y008085D01*
X006535Y008060D01*
X006535Y008010D01*
X006510Y007985D01*
X006435Y007985D01*
X006435Y007935D02*
X006435Y008085D01*
X006485Y007985D02*
X006535Y007935D01*
X006582Y007935D02*
X006582Y007960D01*
X006682Y008060D01*
X006682Y008085D01*
X006582Y008085D01*
D17*
X012680Y017030D03*
X014180Y017030D03*
D18*
X014180Y016655D03*
X012680Y016655D03*
X012680Y018705D03*
X014180Y018705D03*
M02*
