G75*
G70*
%OFA0B0*%
%FSLAX24Y24*%
%IPPOS*%
%LPD*%
%AMOC8*
5,1,8,0,0,1.08239X$1,22.5*
%
%ADD10C,0.0886*%
%ADD11C,0.1012*%
%ADD12OC8,0.0680*%
%ADD13C,0.0740*%
%ADD14C,0.0520*%
%ADD15C,0.0160*%
%ADD16C,0.0396*%
D10*
X006430Y004930D03*
X008930Y005930D03*
X010180Y012430D03*
X012680Y013430D03*
X017680Y008680D03*
X020180Y009680D03*
X005180Y013430D03*
X002680Y012430D03*
D11*
X002180Y011430D03*
X006180Y011430D03*
X009680Y011430D03*
X013680Y011430D03*
X017180Y007680D03*
X021180Y007680D03*
X009930Y003930D03*
X005930Y003930D03*
D12*
X015180Y016180D03*
X015180Y017180D03*
X015180Y018180D03*
X015180Y019180D03*
X018180Y019180D03*
X018180Y018180D03*
X018180Y017180D03*
X018180Y016180D03*
D13*
X017180Y011180D03*
X020180Y011180D03*
X012680Y014930D03*
X011180Y016430D03*
X010180Y016430D03*
X009180Y016430D03*
X009680Y014930D03*
X005180Y014930D03*
X002180Y014930D03*
X009180Y019430D03*
X010180Y019430D03*
X011180Y019430D03*
X008930Y007430D03*
X005930Y007430D03*
D14*
X012680Y015920D02*
X012680Y016440D01*
X014180Y016440D02*
X014180Y015920D01*
X014180Y018920D02*
X014180Y019440D01*
X012680Y019440D02*
X012680Y018920D01*
D15*
X000680Y019930D02*
X000680Y000180D01*
X022680Y000180D01*
X022680Y019930D01*
X023180Y019430D01*
X023180Y000680D01*
X000180Y000680D01*
X000180Y019430D01*
X000180Y000680D01*
X000680Y000180D01*
X022680Y000180D01*
X023180Y000680D01*
X023180Y001180D02*
X021708Y001180D01*
X021680Y001164D02*
X021680Y000180D01*
X021180Y000180D02*
X021180Y001050D01*
X021031Y001050D02*
X021329Y001050D01*
X021616Y001127D01*
X021874Y001276D01*
X022084Y001486D01*
X022233Y001744D01*
X022310Y002031D01*
X022310Y002329D01*
X022233Y002616D01*
X022084Y002874D01*
X021874Y003084D01*
X021616Y003233D01*
X021329Y003310D01*
X021031Y003310D01*
X020744Y003233D01*
X020486Y003084D01*
X020276Y002874D01*
X020127Y002616D01*
X020050Y002329D01*
X020050Y002031D01*
X020127Y001744D01*
X020276Y001486D01*
X020486Y001276D01*
X020744Y001127D01*
X021031Y001050D01*
X020680Y001164D02*
X020680Y000180D01*
X020180Y000180D02*
X020180Y001652D01*
X020164Y001680D02*
X003196Y001680D01*
X003180Y001652D02*
X003180Y000180D01*
X002680Y000180D02*
X002680Y001164D01*
X002708Y001180D02*
X020652Y001180D01*
X020050Y002180D02*
X003310Y002180D01*
X003310Y002329D02*
X003233Y002616D01*
X003084Y002874D01*
X002874Y003084D01*
X002616Y003233D01*
X002329Y003310D01*
X002031Y003310D01*
X001744Y003233D01*
X001486Y003084D01*
X001276Y002874D01*
X001127Y002616D01*
X001050Y002329D01*
X001050Y002031D01*
X001127Y001744D01*
X001276Y001486D01*
X001486Y001276D01*
X001744Y001127D01*
X002031Y001050D01*
X002329Y001050D01*
X002616Y001127D01*
X002874Y001276D01*
X003084Y001486D01*
X003233Y001744D01*
X003310Y002031D01*
X003310Y002329D01*
X003196Y002680D02*
X007698Y002680D01*
X007680Y002685D02*
X007680Y000180D01*
X007180Y000180D02*
X007180Y002899D01*
X007152Y002916D02*
X007441Y002749D01*
X007763Y002663D01*
X008097Y002663D01*
X008419Y002749D01*
X008708Y002916D01*
X008944Y003152D01*
X009111Y003441D01*
X009197Y003763D01*
X009197Y004097D01*
X009111Y004419D01*
X008944Y004708D01*
X008708Y004944D01*
X008419Y005111D01*
X008097Y005197D01*
X007763Y005197D01*
X007441Y005111D01*
X007152Y004944D01*
X007033Y004825D01*
X007033Y005050D01*
X006941Y005272D01*
X006772Y005441D01*
X006550Y005533D01*
X006310Y005533D01*
X006088Y005441D01*
X005919Y005272D01*
X005827Y005050D01*
X005827Y004810D01*
X005916Y004596D01*
X005797Y004596D01*
X005553Y004495D01*
X005365Y004307D01*
X005264Y004063D01*
X005264Y003797D01*
X005365Y003553D01*
X005553Y003365D01*
X005797Y003264D01*
X006063Y003264D01*
X006307Y003365D01*
X006495Y003553D01*
X006596Y003797D01*
X006596Y004063D01*
X006495Y004307D01*
X006475Y004327D01*
X006550Y004327D01*
X006746Y004408D01*
X006663Y004097D01*
X006663Y003763D01*
X006749Y003441D01*
X006916Y003152D01*
X007152Y002916D01*
X006899Y003180D02*
X002708Y003180D01*
X002680Y003196D02*
X002680Y010988D01*
X002745Y011053D02*
X002846Y011297D01*
X002846Y011563D01*
X002745Y011807D01*
X002725Y011827D01*
X002800Y011827D01*
X002996Y011908D01*
X002913Y011597D01*
X002913Y011263D01*
X002999Y010941D01*
X003166Y010652D01*
X003402Y010416D01*
X003691Y010249D01*
X004013Y010163D01*
X004347Y010163D01*
X004669Y010249D01*
X004958Y010416D01*
X005194Y010652D01*
X005361Y010941D01*
X005447Y011263D01*
X005447Y011597D01*
X005361Y011919D01*
X005194Y012208D01*
X004958Y012444D01*
X004669Y012611D01*
X004347Y012697D01*
X004013Y012697D01*
X003691Y012611D01*
X003402Y012444D01*
X003283Y012325D01*
X003283Y012550D01*
X003191Y012772D01*
X003022Y012941D01*
X002800Y013033D01*
X002560Y013033D01*
X002338Y012941D01*
X002169Y012772D01*
X002077Y012550D01*
X002077Y012310D01*
X002166Y012096D01*
X002047Y012096D01*
X001803Y011995D01*
X001615Y011807D01*
X001514Y011563D01*
X001514Y011297D01*
X001615Y011053D01*
X001803Y010865D01*
X002047Y010764D01*
X002313Y010764D01*
X002557Y010865D01*
X002745Y011053D01*
X002798Y011180D02*
X002935Y011180D01*
X002935Y011680D02*
X002798Y011680D01*
X002131Y012180D02*
X000180Y012180D01*
X000180Y011680D02*
X001562Y011680D01*
X001680Y011872D02*
X001680Y014700D01*
X001670Y014719D02*
X001710Y014642D01*
X001760Y014572D01*
X001822Y014510D01*
X001892Y014460D01*
X001969Y014420D01*
X002051Y014394D01*
X002137Y014380D01*
X002171Y014380D01*
X002171Y014921D01*
X002189Y014921D01*
X002189Y014939D01*
X002730Y014939D01*
X002730Y014973D01*
X002716Y015059D01*
X002690Y015141D01*
X002650Y015218D01*
X002600Y015288D01*
X002538Y015350D01*
X002468Y015400D01*
X002391Y015440D01*
X002309Y015466D01*
X002223Y015480D01*
X002189Y015480D01*
X002189Y014939D01*
X002171Y014939D01*
X002171Y015480D01*
X002137Y015480D01*
X002051Y015466D01*
X001969Y015440D01*
X001892Y015400D01*
X001822Y015350D01*
X001760Y015288D01*
X001710Y015218D01*
X001670Y015141D01*
X001644Y015059D01*
X001630Y014973D01*
X001630Y014939D01*
X002171Y014939D01*
X002171Y014921D01*
X001630Y014921D01*
X001630Y014887D01*
X001644Y014801D01*
X001670Y014719D01*
X001690Y014680D02*
X000180Y014680D01*
X000180Y014180D02*
X023180Y014180D01*
X023180Y014680D02*
X013150Y014680D01*
X013154Y014690D02*
X018478Y014690D01*
X018566Y014727D01*
X018816Y014977D01*
X018883Y015044D01*
X018920Y015132D01*
X018920Y016978D01*
X018883Y017066D01*
X018680Y017269D01*
X018680Y018945D01*
X018700Y018965D02*
X018700Y019180D01*
X018700Y019395D01*
X018395Y019700D01*
X018180Y019700D01*
X018180Y019180D01*
X018180Y019930D01*
X018180Y019700D02*
X017965Y019700D01*
X017660Y019395D01*
X017660Y019180D01*
X018180Y019180D01*
X023180Y019180D01*
X022930Y019680D02*
X018415Y019680D01*
X018180Y019680D02*
X018180Y019680D01*
X018180Y019700D02*
X018180Y019180D01*
X018700Y019180D01*
X018180Y019180D01*
X018180Y019180D01*
X018180Y019180D01*
X015680Y019180D01*
X015680Y018973D02*
X015680Y019387D01*
X015387Y019680D01*
X014973Y019680D01*
X014680Y019387D01*
X014680Y019930D01*
X014516Y019727D02*
X014467Y019776D01*
X014411Y019816D01*
X014349Y019848D01*
X014283Y019869D01*
X014215Y019880D01*
X014180Y019880D01*
X014180Y019180D01*
X014180Y019930D01*
X014180Y019880D02*
X014145Y019880D01*
X014077Y019869D01*
X014011Y019848D01*
X013949Y019816D01*
X013893Y019776D01*
X013844Y019727D01*
X013804Y019671D01*
X013772Y019609D01*
X013751Y019543D01*
X013740Y019475D01*
X013740Y019180D01*
X014180Y019180D01*
X014680Y019180D01*
X014620Y019180D02*
X014620Y019475D01*
X014609Y019543D01*
X014588Y019609D01*
X014556Y019671D01*
X014516Y019727D01*
X014549Y019680D02*
X017945Y019680D01*
X017680Y019930D02*
X017680Y019415D01*
X017680Y019180D02*
X017680Y019180D01*
X017660Y019180D02*
X017660Y018965D01*
X017959Y018666D01*
X017680Y018387D01*
X017680Y018945D01*
X017660Y019180D02*
X018180Y019180D01*
X018180Y019180D01*
X018680Y019180D02*
X018680Y019180D01*
X018700Y018965D02*
X018401Y018666D01*
X018680Y018387D01*
X018680Y017973D01*
X018387Y017680D01*
X020077Y017680D01*
X020050Y017781D02*
X020127Y017494D01*
X020276Y017236D01*
X020486Y017026D01*
X020744Y016877D01*
X021031Y016800D01*
X021329Y016800D01*
X021616Y016877D01*
X021874Y017026D01*
X022084Y017236D01*
X022233Y017494D01*
X022310Y017781D01*
X022310Y018079D01*
X022233Y018366D01*
X022084Y018624D01*
X021874Y018834D01*
X021616Y018983D01*
X021329Y019060D01*
X021031Y019060D01*
X020744Y018983D01*
X020486Y018834D01*
X020276Y018624D01*
X020127Y018366D01*
X020050Y018079D01*
X020050Y017781D01*
X020077Y018180D02*
X018680Y018180D01*
X018415Y018680D02*
X020332Y018680D01*
X020180Y018458D02*
X020180Y019930D01*
X019680Y019930D02*
X019680Y011358D01*
X019650Y011285D02*
X019731Y011480D01*
X019880Y011629D01*
X020075Y011710D01*
X020285Y011710D01*
X020480Y011629D01*
X020629Y011480D01*
X020710Y011285D01*
X020710Y011075D01*
X020629Y010880D01*
X020480Y010731D01*
X020285Y010650D01*
X020075Y010650D01*
X019880Y010731D01*
X019731Y010880D01*
X019650Y011075D01*
X019650Y011285D01*
X019650Y011180D02*
X017189Y011180D01*
X017189Y011189D02*
X017730Y011189D01*
X017730Y011223D01*
X017716Y011309D01*
X017690Y011391D01*
X017650Y011468D01*
X017600Y011538D01*
X017538Y011600D01*
X017468Y011650D01*
X017391Y011690D01*
X017309Y011716D01*
X017223Y011730D01*
X017189Y011730D01*
X017189Y011189D01*
X017189Y011171D01*
X017730Y011171D01*
X017730Y011137D01*
X017716Y011051D01*
X017690Y010969D01*
X017650Y010892D01*
X017600Y010822D01*
X017538Y010760D01*
X017468Y010710D01*
X017391Y010670D01*
X017309Y010644D01*
X017223Y010630D01*
X017189Y010630D01*
X017189Y011171D01*
X017171Y011171D01*
X017171Y010630D01*
X017137Y010630D01*
X017051Y010644D01*
X016969Y010670D01*
X016892Y010710D01*
X016822Y010760D01*
X016760Y010822D01*
X016710Y010892D01*
X016670Y010969D01*
X016644Y011051D01*
X016630Y011137D01*
X016630Y011171D01*
X017171Y011171D01*
X017171Y011189D01*
X017171Y011730D01*
X017137Y011730D01*
X017051Y011716D01*
X016969Y011690D01*
X016892Y011650D01*
X016822Y011600D01*
X016760Y011538D01*
X016710Y011468D01*
X016670Y011391D01*
X016644Y011309D01*
X016630Y011223D01*
X016630Y011189D01*
X017171Y011189D01*
X017189Y011189D01*
X017180Y011189D02*
X017180Y014690D01*
X016680Y014690D02*
X016680Y011410D01*
X016680Y011189D02*
X016680Y011171D01*
X016680Y010950D02*
X016680Y008122D01*
X016738Y008180D02*
X000180Y008180D01*
X000180Y007680D02*
X005440Y007680D01*
X005460Y007718D02*
X005420Y007641D01*
X005394Y007559D01*
X005380Y007473D01*
X005380Y007439D01*
X005921Y007439D01*
X005921Y007980D01*
X005887Y007980D01*
X005801Y007966D01*
X005719Y007940D01*
X005642Y007900D01*
X005572Y007850D01*
X005510Y007788D01*
X005460Y007718D01*
X005680Y007920D02*
X005680Y010988D01*
X005615Y011053D02*
X005803Y010865D01*
X006047Y010764D01*
X006313Y010764D01*
X006557Y010865D01*
X006745Y011053D01*
X006846Y011297D01*
X006846Y011563D01*
X006745Y011807D01*
X006557Y011995D01*
X006313Y012096D01*
X006047Y012096D01*
X005803Y011995D01*
X005615Y011807D01*
X005514Y011563D01*
X005514Y011297D01*
X005615Y011053D01*
X005562Y011180D02*
X005425Y011180D01*
X005425Y011680D02*
X005562Y011680D01*
X005680Y011872D02*
X005680Y013077D01*
X005691Y013088D02*
X005783Y013310D01*
X005783Y013550D01*
X005691Y013772D01*
X005522Y013941D01*
X005300Y014033D01*
X005060Y014033D01*
X004838Y013941D01*
X004669Y013772D01*
X004577Y013550D01*
X004577Y013310D01*
X004669Y013088D01*
X004838Y012919D01*
X005060Y012827D01*
X005300Y012827D01*
X005522Y012919D01*
X005691Y013088D01*
X005729Y013180D02*
X012131Y013180D01*
X012169Y013088D02*
X012077Y013310D01*
X012077Y013550D01*
X012169Y013772D01*
X012338Y013941D01*
X012560Y014033D01*
X012800Y014033D01*
X013022Y013941D01*
X013191Y013772D01*
X013283Y013550D01*
X013283Y013310D01*
X013191Y013088D01*
X013022Y012919D01*
X012800Y012827D01*
X012560Y012827D01*
X012338Y012919D01*
X012169Y013088D01*
X012180Y013077D02*
X012180Y012605D01*
X012169Y012611D02*
X011847Y012697D01*
X011513Y012697D01*
X011191Y012611D01*
X010902Y012444D01*
X010783Y012325D01*
X010783Y012550D01*
X010691Y012772D01*
X010522Y012941D01*
X010300Y013033D01*
X010060Y013033D01*
X009838Y012941D01*
X009669Y012772D01*
X009577Y012550D01*
X009577Y012310D01*
X009666Y012096D01*
X009547Y012096D01*
X009303Y011995D01*
X009115Y011807D01*
X009014Y011563D01*
X009014Y011297D01*
X009115Y011053D01*
X009303Y010865D01*
X009547Y010764D01*
X009813Y010764D01*
X010057Y010865D01*
X010245Y011053D01*
X010346Y011297D01*
X010346Y011563D01*
X010245Y011807D01*
X010225Y011827D01*
X010300Y011827D01*
X010496Y011908D01*
X010413Y011597D01*
X010413Y011263D01*
X010499Y010941D01*
X010666Y010652D01*
X010902Y010416D01*
X011191Y010249D01*
X011513Y010163D01*
X011847Y010163D01*
X012169Y010249D01*
X012458Y010416D01*
X012694Y010652D01*
X012861Y010941D01*
X012947Y011263D01*
X012947Y011597D01*
X012861Y011919D01*
X012694Y012208D01*
X012458Y012444D01*
X012169Y012611D01*
X011912Y012680D02*
X023180Y012680D01*
X023180Y013180D02*
X013229Y013180D01*
X013180Y013077D02*
X013180Y011872D01*
X013115Y011807D02*
X013014Y011563D01*
X013014Y011297D01*
X013115Y011053D01*
X013303Y010865D01*
X013547Y010764D01*
X013813Y010764D01*
X014057Y010865D01*
X014245Y011053D01*
X014346Y011297D01*
X014346Y011563D01*
X014245Y011807D01*
X014057Y011995D01*
X013813Y012096D01*
X013547Y012096D01*
X013303Y011995D01*
X013115Y011807D01*
X013062Y011680D02*
X012925Y011680D01*
X012925Y011180D02*
X013062Y011180D01*
X013180Y010988D02*
X013180Y000180D01*
X012680Y000180D02*
X012680Y010638D01*
X012711Y010680D02*
X016950Y010680D01*
X017171Y010680D02*
X017189Y010680D01*
X017410Y010680D02*
X020002Y010680D01*
X020180Y010650D02*
X020180Y010283D01*
X020300Y010283D02*
X020060Y010283D01*
X019838Y010191D01*
X019669Y010022D01*
X019577Y009800D01*
X019577Y009560D01*
X019669Y009338D01*
X019838Y009169D01*
X020060Y009077D01*
X020300Y009077D01*
X020522Y009169D01*
X020691Y009338D01*
X020783Y009560D01*
X020783Y009800D01*
X020691Y010022D01*
X020522Y010191D01*
X020300Y010283D01*
X020533Y010180D02*
X023180Y010180D01*
X023180Y009680D02*
X020783Y009680D01*
X020680Y010033D02*
X020680Y011002D01*
X020710Y011180D02*
X023180Y011180D01*
X023180Y010680D02*
X020358Y010680D01*
X019827Y010180D02*
X011912Y010180D01*
X011680Y010163D02*
X011680Y000180D01*
X012180Y000180D02*
X012180Y010255D01*
X011448Y010180D02*
X004412Y010180D01*
X004180Y010163D02*
X004180Y000180D01*
X003680Y000180D02*
X003680Y010255D01*
X003948Y010180D02*
X000180Y010180D01*
X000180Y009680D02*
X019577Y009680D01*
X019680Y010033D02*
X019680Y011002D01*
X020002Y011680D02*
X017410Y011680D01*
X017189Y011680D02*
X017171Y011680D01*
X016950Y011680D02*
X014298Y011680D01*
X014180Y011872D02*
X014180Y014690D01*
X013680Y014690D02*
X013680Y012096D01*
X012711Y012180D02*
X023180Y012180D01*
X023180Y011680D02*
X020358Y011680D01*
X020180Y011710D02*
X020180Y017402D01*
X020332Y017180D02*
X018769Y017180D01*
X018680Y017269D02*
X018680Y017387D01*
X018387Y017680D01*
X017973Y017680D01*
X015387Y017680D01*
X014973Y017680D01*
X007654Y017680D01*
X007680Y017743D02*
X007680Y015170D01*
X007680Y014690D02*
X007680Y005175D01*
X007698Y005180D02*
X006979Y005180D01*
X007180Y004961D02*
X007180Y014690D01*
X007180Y015170D02*
X007180Y017274D01*
X007177Y017273D02*
X007418Y017373D01*
X007603Y017558D01*
X007703Y017799D01*
X007703Y018061D01*
X007603Y018302D01*
X007418Y018487D01*
X007177Y018587D01*
X006915Y018587D01*
X006674Y018487D01*
X006489Y018302D01*
X006389Y018061D01*
X006389Y017799D01*
X006489Y017558D01*
X006674Y017373D01*
X006915Y017273D01*
X007177Y017273D01*
X006680Y017370D02*
X006680Y015170D01*
X006680Y014690D02*
X006680Y011872D01*
X006798Y011680D02*
X009062Y011680D01*
X009180Y011872D02*
X009180Y014700D01*
X009170Y014719D02*
X009210Y014642D01*
X009260Y014572D01*
X009322Y014510D01*
X009392Y014460D01*
X009469Y014420D01*
X009551Y014394D01*
X009637Y014380D01*
X009671Y014380D01*
X009671Y014921D01*
X009689Y014921D01*
X009689Y014939D01*
X010230Y014939D01*
X010230Y014973D01*
X010216Y015059D01*
X010190Y015141D01*
X010165Y015190D01*
X012214Y015190D01*
X012150Y015035D01*
X012150Y014825D01*
X012231Y014630D01*
X012380Y014481D01*
X012575Y014400D01*
X012785Y014400D01*
X012980Y014481D01*
X013129Y014630D01*
X013154Y014690D01*
X013180Y014690D02*
X013180Y013783D01*
X013229Y013680D02*
X023180Y013680D01*
X023180Y015180D02*
X018920Y015180D01*
X018680Y015180D02*
X018680Y016930D01*
X018430Y017180D01*
X018180Y017180D01*
X018180Y016680D02*
X018180Y016680D01*
X018387Y016680D02*
X017973Y016680D01*
X015387Y016680D01*
X015680Y016973D01*
X015680Y017387D01*
X015387Y017680D01*
X015680Y017973D01*
X015680Y018387D01*
X015387Y018680D01*
X017945Y018680D01*
X017680Y018387D02*
X017680Y017973D01*
X017680Y017387D01*
X017680Y016973D01*
X017680Y016387D01*
X017680Y016019D01*
X017331Y015670D01*
X014524Y015670D01*
X014536Y015682D01*
X014600Y015836D01*
X014600Y016524D01*
X014536Y016678D01*
X014418Y016796D01*
X014264Y016860D01*
X014096Y016860D01*
X013942Y016796D01*
X013824Y016678D01*
X013760Y016524D01*
X013760Y015836D01*
X013824Y015682D01*
X013836Y015670D01*
X013024Y015670D01*
X013036Y015682D01*
X013100Y015836D01*
X013100Y016524D01*
X013036Y016678D01*
X012918Y016796D01*
X012764Y016860D01*
X012596Y016860D01*
X012442Y016796D01*
X012324Y016678D01*
X012260Y016524D01*
X012260Y015836D01*
X012324Y015682D01*
X012336Y015670D01*
X009132Y015670D01*
X009044Y015633D01*
X008977Y015566D01*
X008581Y015170D01*
X005654Y015170D01*
X005629Y015230D01*
X005480Y015379D01*
X005285Y015460D01*
X005075Y015460D01*
X004880Y015379D01*
X004731Y015230D01*
X004650Y015035D01*
X004650Y014825D01*
X004731Y014630D01*
X004880Y014481D01*
X005075Y014400D01*
X005285Y014400D01*
X005480Y014481D01*
X005629Y014630D01*
X005654Y014690D01*
X008728Y014690D01*
X008816Y014727D01*
X009143Y015053D01*
X009130Y014973D01*
X009130Y014939D01*
X009671Y014939D01*
X009671Y014921D01*
X009130Y014921D01*
X009130Y014887D01*
X009144Y014801D01*
X009170Y014719D01*
X009190Y014680D02*
X005650Y014680D01*
X005680Y014690D02*
X005680Y013783D01*
X005729Y013680D02*
X012131Y013680D01*
X012180Y013783D02*
X012180Y014752D01*
X012210Y014680D02*
X010170Y014680D01*
X010180Y014700D02*
X010180Y013033D01*
X009680Y012783D02*
X009680Y014921D01*
X009689Y014921D02*
X009689Y014380D01*
X009723Y014380D01*
X009809Y014394D01*
X009891Y014420D01*
X009968Y014460D01*
X010038Y014510D01*
X010100Y014572D01*
X010150Y014642D01*
X010190Y014719D01*
X010216Y014801D01*
X010230Y014887D01*
X010230Y014921D01*
X009689Y014921D01*
X009671Y014680D02*
X009689Y014680D01*
X010180Y014921D02*
X010180Y014939D01*
X010180Y015160D02*
X010180Y015190D01*
X010170Y015180D02*
X012210Y015180D01*
X012180Y015190D02*
X012180Y015108D01*
X011680Y015190D02*
X011680Y012697D01*
X011448Y012680D02*
X010729Y012680D01*
X010680Y012783D02*
X010680Y015190D01*
X010680Y015670D02*
X010680Y016252D01*
X010731Y016130D01*
X010880Y015981D01*
X011075Y015900D01*
X011285Y015900D01*
X011480Y015981D01*
X011629Y016130D01*
X011710Y016325D01*
X011710Y016535D01*
X011629Y016730D01*
X011480Y016879D01*
X011285Y016960D01*
X011075Y016960D01*
X010880Y016879D01*
X010731Y016730D01*
X010680Y016608D01*
X010680Y018190D01*
X010382Y018190D02*
X014478Y018190D01*
X014566Y018227D01*
X014633Y018294D01*
X014680Y018341D01*
X014680Y017973D01*
X014680Y017387D01*
X014680Y016973D01*
X014680Y016387D01*
X014680Y015973D01*
X014680Y015670D01*
X014534Y015680D02*
X014973Y015680D01*
X015387Y015680D01*
X017341Y015680D01*
X017180Y015670D02*
X017180Y019930D01*
X016680Y019930D02*
X016680Y015670D01*
X016180Y015670D02*
X016180Y019930D01*
X015680Y019930D02*
X015680Y015670D01*
X015387Y015680D02*
X015680Y015973D01*
X015680Y016387D01*
X015387Y016680D01*
X014973Y016680D01*
X014534Y016680D01*
X014680Y016973D02*
X014973Y016680D01*
X014680Y016387D01*
X014680Y016180D02*
X014600Y016180D01*
X014680Y015973D02*
X014973Y015680D01*
X015180Y015670D02*
X015180Y015680D01*
X015680Y016180D02*
X017680Y016180D01*
X017680Y016387D02*
X017973Y016680D01*
X018387Y016680D01*
X018440Y016680D01*
X018440Y016627D02*
X018387Y016680D01*
X018440Y016733D01*
X018440Y016627D01*
X017973Y016680D02*
X017680Y016973D01*
X017680Y017180D02*
X015680Y017180D01*
X015387Y016680D02*
X014973Y016680D01*
X015180Y016680D02*
X015180Y016680D01*
X014680Y017180D02*
X003028Y017180D01*
X003084Y017236D02*
X002874Y017026D01*
X002616Y016877D01*
X002329Y016800D01*
X002031Y016800D01*
X001744Y016877D01*
X001486Y017026D01*
X001276Y017236D01*
X001127Y017494D01*
X001050Y017781D01*
X001050Y018079D01*
X001127Y018366D01*
X001276Y018624D01*
X001486Y018834D01*
X001744Y018983D01*
X002031Y019060D01*
X002329Y019060D01*
X002616Y018983D01*
X002874Y018834D01*
X003084Y018624D01*
X003233Y018366D01*
X003310Y018079D01*
X003310Y017781D01*
X003233Y017494D01*
X003084Y017236D01*
X003180Y017402D02*
X003180Y012783D01*
X003229Y012680D02*
X003948Y012680D01*
X004180Y012697D02*
X004180Y019930D01*
X003680Y019930D02*
X003680Y012605D01*
X004412Y012680D02*
X009631Y012680D01*
X009631Y012180D02*
X005211Y012180D01*
X005180Y012222D02*
X005180Y012827D01*
X004680Y012605D02*
X004680Y013077D01*
X004631Y013180D02*
X000180Y013180D01*
X000180Y012680D02*
X002131Y012680D01*
X002180Y012783D02*
X002180Y014921D01*
X002189Y014921D02*
X002189Y014380D01*
X002223Y014380D01*
X002309Y014394D01*
X002391Y014420D01*
X002468Y014460D01*
X002538Y014510D01*
X002600Y014572D01*
X002650Y014642D01*
X002690Y014719D01*
X002716Y014801D01*
X002730Y014887D01*
X002730Y014921D01*
X002189Y014921D01*
X002180Y014939D02*
X002180Y016800D01*
X001680Y016914D02*
X001680Y015160D01*
X001690Y015180D02*
X000180Y015180D01*
X000180Y015680D02*
X012326Y015680D01*
X012180Y015670D02*
X012180Y018190D01*
X012180Y018670D02*
X012180Y019930D01*
X012344Y019727D02*
X012304Y019671D01*
X012272Y019609D01*
X012251Y019543D01*
X012240Y019475D01*
X012240Y019180D01*
X012680Y019180D01*
X012680Y019930D01*
X012680Y019880D02*
X012645Y019880D01*
X012577Y019869D01*
X012511Y019848D01*
X012449Y019816D01*
X012393Y019776D01*
X012344Y019727D01*
X012311Y019680D02*
X011650Y019680D01*
X011629Y019730D02*
X011480Y019879D01*
X011358Y019930D01*
X022680Y019930D01*
X022180Y019930D02*
X022180Y018458D01*
X022028Y018680D02*
X023180Y018680D01*
X023180Y018180D02*
X022283Y018180D01*
X022283Y017680D02*
X023180Y017680D01*
X023180Y017180D02*
X022028Y017180D01*
X022180Y017402D02*
X022180Y002708D01*
X022196Y002680D02*
X023180Y002680D01*
X023180Y002180D02*
X022310Y002180D01*
X022196Y001680D02*
X023180Y001680D01*
X022180Y001652D02*
X022180Y000180D01*
X019680Y000180D02*
X019680Y006505D01*
X019669Y006499D02*
X019958Y006666D01*
X020194Y006902D01*
X020361Y007191D01*
X020447Y007513D01*
X020447Y007847D01*
X020361Y008169D01*
X020194Y008458D01*
X019958Y008694D01*
X019669Y008861D01*
X019347Y008947D01*
X019013Y008947D01*
X018691Y008861D01*
X018402Y008694D01*
X018283Y008575D01*
X018283Y008800D01*
X018191Y009022D01*
X018022Y009191D01*
X017800Y009283D01*
X017560Y009283D01*
X017338Y009191D01*
X017169Y009022D01*
X017077Y008800D01*
X017077Y008560D01*
X017166Y008346D01*
X017047Y008346D01*
X016803Y008245D01*
X016615Y008057D01*
X016514Y007813D01*
X016514Y007547D01*
X016615Y007303D01*
X016803Y007115D01*
X017047Y007014D01*
X017313Y007014D01*
X017557Y007115D01*
X017745Y007303D01*
X017846Y007547D01*
X017846Y007813D01*
X017745Y008057D01*
X017725Y008077D01*
X017800Y008077D01*
X017996Y008158D01*
X017913Y007847D01*
X017913Y007513D01*
X017999Y007191D01*
X018166Y006902D01*
X018402Y006666D01*
X018691Y006499D01*
X019013Y006413D01*
X019347Y006413D01*
X019669Y006499D01*
X019972Y006680D02*
X023180Y006680D01*
X023180Y006180D02*
X009479Y006180D01*
X009441Y006272D02*
X009272Y006441D01*
X009050Y006533D01*
X008810Y006533D01*
X008588Y006441D01*
X008419Y006272D01*
X008327Y006050D01*
X008327Y005810D01*
X008419Y005588D01*
X008588Y005419D01*
X008810Y005327D01*
X009050Y005327D01*
X009272Y005419D01*
X009441Y005588D01*
X009533Y005810D01*
X009533Y006050D01*
X009441Y006272D01*
X009180Y006479D02*
X009180Y006960D01*
X009230Y006981D02*
X009379Y007130D01*
X009460Y007325D01*
X009460Y007535D01*
X009379Y007730D01*
X009230Y007879D01*
X009035Y007960D01*
X008825Y007960D01*
X008630Y007879D01*
X008481Y007730D01*
X008400Y007535D01*
X008400Y007325D01*
X008481Y007130D01*
X008630Y006981D01*
X008825Y006900D01*
X009035Y006900D01*
X009230Y006981D01*
X009400Y007180D02*
X016738Y007180D01*
X016680Y007238D02*
X016680Y000180D01*
X016180Y000180D02*
X016180Y014690D01*
X015680Y014690D02*
X015680Y000180D01*
X015180Y000180D02*
X015180Y014690D01*
X014680Y014690D02*
X014680Y000180D01*
X014180Y000180D02*
X014180Y010988D01*
X014298Y011180D02*
X017171Y011180D01*
X017180Y011171D02*
X017180Y009033D01*
X017327Y009180D02*
X000180Y009180D01*
X000180Y008680D02*
X017077Y008680D01*
X017680Y009283D02*
X017680Y010950D01*
X017680Y011171D02*
X017680Y011189D01*
X017680Y011410D02*
X017680Y014690D01*
X018180Y014690D02*
X018180Y009033D01*
X018033Y009180D02*
X019827Y009180D01*
X019680Y009327D02*
X019680Y008855D01*
X019972Y008680D02*
X023180Y008680D01*
X023180Y008180D02*
X021622Y008180D01*
X021680Y008122D02*
X021680Y016914D01*
X021180Y016800D02*
X021180Y008346D01*
X021313Y008346D02*
X021047Y008346D01*
X020803Y008245D01*
X020615Y008057D01*
X020514Y007813D01*
X020514Y007547D01*
X020615Y007303D01*
X020803Y007115D01*
X021047Y007014D01*
X021313Y007014D01*
X021557Y007115D01*
X021745Y007303D01*
X021846Y007547D01*
X021846Y007813D01*
X021745Y008057D01*
X021557Y008245D01*
X021313Y008346D01*
X020738Y008180D02*
X020355Y008180D01*
X020680Y008122D02*
X020680Y009327D01*
X020533Y009180D02*
X023180Y009180D01*
X023180Y007680D02*
X021846Y007680D01*
X021680Y007238D02*
X021680Y003196D01*
X021708Y003180D02*
X023180Y003180D01*
X023180Y003680D02*
X010548Y003680D01*
X010596Y003797D02*
X010495Y003553D01*
X010307Y003365D01*
X010063Y003264D01*
X009797Y003264D01*
X009553Y003365D01*
X009365Y003553D01*
X009264Y003797D01*
X009264Y004063D01*
X009365Y004307D01*
X009553Y004495D01*
X009797Y004596D01*
X010063Y004596D01*
X010307Y004495D01*
X010495Y004307D01*
X010596Y004063D01*
X010596Y003797D01*
X010548Y004180D02*
X023180Y004180D01*
X023180Y004680D02*
X008961Y004680D01*
X008680Y004961D02*
X008680Y005381D01*
X008381Y005680D02*
X000180Y005680D01*
X000180Y006180D02*
X008381Y006180D01*
X008680Y006479D02*
X008680Y006960D01*
X008460Y007180D02*
X006420Y007180D01*
X006400Y007142D02*
X006440Y007219D01*
X006466Y007301D01*
X006480Y007387D01*
X006480Y007421D01*
X005939Y007421D01*
X005939Y007439D01*
X006480Y007439D01*
X006480Y007473D01*
X006466Y007559D01*
X006440Y007641D01*
X006400Y007718D01*
X006350Y007788D01*
X006288Y007850D01*
X006218Y007900D01*
X006141Y007940D01*
X006059Y007966D01*
X005973Y007980D01*
X005939Y007980D01*
X005939Y007439D01*
X005921Y007439D01*
X005921Y007421D01*
X005939Y007421D01*
X005939Y006880D01*
X005973Y006880D01*
X006059Y006894D01*
X006141Y006920D01*
X006218Y006960D01*
X006288Y007010D01*
X006350Y007072D01*
X006400Y007142D01*
X006180Y006940D02*
X006180Y005479D01*
X005881Y005180D02*
X000180Y005180D01*
X000180Y004680D02*
X005881Y004680D01*
X005680Y004548D02*
X005680Y006940D01*
X005642Y006960D02*
X005719Y006920D01*
X005801Y006894D01*
X005887Y006880D01*
X005921Y006880D01*
X005921Y007421D01*
X005380Y007421D01*
X005380Y007387D01*
X005394Y007301D01*
X005420Y007219D01*
X005460Y007142D01*
X005510Y007072D01*
X005572Y007010D01*
X005642Y006960D01*
X005440Y007180D02*
X000180Y007180D01*
X000180Y006680D02*
X018388Y006680D01*
X018180Y006888D02*
X018180Y000180D01*
X017680Y000180D02*
X017680Y007238D01*
X017622Y007180D02*
X018005Y007180D01*
X017913Y007680D02*
X017846Y007680D01*
X017180Y007014D02*
X017180Y000180D01*
X018680Y000180D02*
X018680Y006505D01*
X019180Y006413D02*
X019180Y000180D01*
X020164Y002680D02*
X008162Y002680D01*
X008180Y002685D02*
X008180Y000180D01*
X008680Y000180D02*
X008680Y002899D01*
X008961Y003180D02*
X020652Y003180D01*
X020680Y003196D02*
X020680Y007238D01*
X020738Y007180D02*
X020355Y007180D01*
X020180Y006888D02*
X020180Y002708D01*
X021180Y003310D02*
X021180Y007014D01*
X021622Y007180D02*
X023180Y007180D01*
X023180Y005680D02*
X009479Y005680D01*
X009180Y005381D02*
X009180Y004162D01*
X009175Y004180D02*
X009312Y004180D01*
X009680Y004548D02*
X009680Y010764D01*
X009180Y010988D02*
X009180Y007900D01*
X009400Y007680D02*
X016514Y007680D01*
X018283Y008680D02*
X018388Y008680D01*
X018680Y008855D02*
X018680Y014841D01*
X018430Y014930D02*
X018680Y015180D01*
X018430Y014930D02*
X012680Y014930D01*
X012680Y014400D02*
X012680Y014033D01*
X012680Y012827D02*
X012680Y012222D01*
X011180Y012605D02*
X011180Y015190D01*
X011180Y015670D02*
X011180Y015900D01*
X011650Y016180D02*
X012260Y016180D01*
X012326Y016680D02*
X011650Y016680D01*
X011680Y016608D02*
X011680Y018190D01*
X011680Y018670D02*
X011680Y019252D01*
X011650Y019180D02*
X012680Y019180D01*
X014180Y019180D01*
X014180Y019180D01*
X014620Y019180D01*
X014180Y019180D01*
X014180Y019180D01*
X014180Y019180D01*
X014180Y019880D01*
X014180Y019680D02*
X014180Y019680D01*
X013811Y019680D02*
X013049Y019680D01*
X013056Y019671D02*
X013016Y019727D01*
X012967Y019776D01*
X012911Y019816D01*
X012849Y019848D01*
X012783Y019869D01*
X012715Y019880D01*
X012680Y019880D01*
X012680Y019180D01*
X012680Y019180D01*
X013120Y019180D01*
X013120Y019475D01*
X013109Y019543D01*
X013088Y019609D01*
X013056Y019671D01*
X013180Y019930D02*
X013180Y018670D01*
X013088Y018751D02*
X013109Y018817D01*
X013120Y018885D01*
X013120Y019180D01*
X012680Y019180D01*
X012680Y019180D01*
X012680Y019180D01*
X012680Y019880D01*
X012680Y019680D02*
X012680Y019680D01*
X012680Y019180D02*
X012240Y019180D01*
X012240Y018885D01*
X012251Y018817D01*
X012272Y018751D01*
X012304Y018689D01*
X012318Y018670D01*
X010529Y018670D01*
X010420Y018779D01*
X010420Y018956D01*
X010480Y018981D01*
X010629Y019130D01*
X010680Y019252D01*
X010680Y018670D01*
X010519Y018680D02*
X012310Y018680D01*
X012680Y018190D02*
X012680Y016860D01*
X013034Y016680D02*
X013826Y016680D01*
X014180Y016860D02*
X014180Y018190D01*
X014430Y018430D02*
X010430Y018430D01*
X010180Y018680D01*
X010180Y019430D01*
X010680Y019252D02*
X010731Y019130D01*
X010880Y018981D01*
X011075Y018900D01*
X011285Y018900D01*
X011480Y018981D01*
X011629Y019130D01*
X011710Y019325D01*
X011710Y019535D01*
X011629Y019730D01*
X011680Y019608D02*
X011680Y019930D01*
X011180Y018900D02*
X011180Y018670D01*
X011180Y018190D02*
X011180Y016960D01*
X010710Y016680D02*
X010650Y016680D01*
X010629Y016730D02*
X010480Y016879D01*
X010285Y016960D01*
X010075Y016960D01*
X009880Y016879D01*
X009731Y016730D01*
X009680Y016608D01*
X009680Y019252D01*
X009731Y019130D01*
X009880Y018981D01*
X009940Y018956D01*
X009940Y018632D01*
X009977Y018544D01*
X010044Y018477D01*
X010294Y018227D01*
X010382Y018190D01*
X010180Y018341D02*
X010180Y016960D01*
X010629Y016730D02*
X010680Y016608D01*
X010680Y016252D02*
X010629Y016130D01*
X010480Y015981D01*
X010285Y015900D01*
X010075Y015900D01*
X009880Y015981D01*
X009731Y016130D01*
X009680Y016252D01*
X009680Y015670D01*
X009480Y015981D02*
X009285Y015900D01*
X009075Y015900D01*
X008880Y015981D01*
X008731Y016130D01*
X008650Y016325D01*
X008650Y016535D01*
X008731Y016730D01*
X008880Y016879D01*
X009075Y016960D01*
X009285Y016960D01*
X009480Y016879D01*
X009629Y016730D01*
X009680Y016608D01*
X009650Y016680D02*
X009710Y016680D01*
X009680Y016252D02*
X009629Y016130D01*
X009480Y015981D01*
X009650Y016180D02*
X009710Y016180D01*
X010180Y015900D02*
X010180Y015670D01*
X010650Y016180D02*
X010710Y016180D01*
X011680Y016252D02*
X011680Y015670D01*
X013034Y015680D02*
X013826Y015680D01*
X013680Y015670D02*
X013680Y018190D01*
X013680Y018670D02*
X013680Y019930D01*
X013740Y019180D02*
X013740Y018885D01*
X013751Y018817D01*
X013772Y018751D01*
X013804Y018689D01*
X013818Y018670D01*
X013042Y018670D01*
X013056Y018689D01*
X013088Y018751D01*
X013049Y018680D02*
X013810Y018680D01*
X014430Y018430D02*
X015180Y019180D01*
X015180Y019680D02*
X015180Y019930D01*
X014680Y019387D02*
X014680Y019019D01*
X014620Y018959D01*
X014620Y019180D01*
X014180Y019180D02*
X013740Y019180D01*
X013180Y018190D02*
X013180Y015670D01*
X013100Y016180D02*
X013760Y016180D01*
X014680Y017387D02*
X014973Y017680D01*
X015387Y017680D01*
X015180Y017680D02*
X015180Y017680D01*
X014973Y017680D02*
X014680Y017973D01*
X014680Y018180D02*
X007654Y018180D01*
X007680Y018117D02*
X007680Y019930D01*
X007180Y019930D02*
X007180Y018586D01*
X006680Y018490D02*
X006680Y019930D01*
X006180Y019930D02*
X006180Y015170D01*
X006180Y014690D02*
X006180Y012096D01*
X006798Y011180D02*
X009062Y011180D01*
X010180Y010988D02*
X010180Y004548D01*
X009312Y003680D02*
X009175Y003680D01*
X009180Y003698D02*
X009180Y000180D01*
X009680Y000180D02*
X009680Y003312D01*
X010180Y003312D02*
X010180Y000180D01*
X010680Y000180D02*
X010680Y010638D01*
X010649Y010680D02*
X005211Y010680D01*
X005180Y010638D02*
X005180Y000180D01*
X004680Y000180D02*
X004680Y010255D01*
X006180Y010764D02*
X006180Y007920D01*
X006420Y007680D02*
X008460Y007680D01*
X008680Y007900D02*
X008680Y014690D01*
X008680Y014930D02*
X009180Y015430D01*
X017430Y015430D01*
X018180Y016180D01*
X018920Y016180D02*
X023180Y016180D01*
X023180Y015680D02*
X018920Y015680D01*
X018920Y016680D02*
X023180Y016680D01*
X020680Y016914D02*
X020680Y011358D01*
X020180Y009077D02*
X020180Y008472D01*
X020447Y007680D02*
X020514Y007680D01*
X019180Y008947D02*
X019180Y019930D01*
X018680Y019930D02*
X018680Y019415D01*
X017680Y018180D02*
X015680Y018180D01*
X015387Y018680D02*
X015019Y018680D01*
X015019Y018680D01*
X015387Y018680D01*
X015680Y018973D01*
X015180Y018680D02*
X015180Y018680D01*
X017680Y017973D02*
X017973Y017680D01*
X017680Y017387D01*
X017973Y017680D02*
X018387Y017680D01*
X018180Y017680D02*
X018180Y017680D01*
X020680Y018946D02*
X020680Y019930D01*
X021180Y019930D02*
X021180Y019060D01*
X021680Y018946D02*
X021680Y019930D01*
X013680Y010764D02*
X013680Y000180D01*
X011180Y000180D02*
X011180Y010255D01*
X010435Y011180D02*
X010298Y011180D01*
X010298Y011680D02*
X010435Y011680D01*
X008180Y014690D02*
X008180Y005175D01*
X008162Y005180D02*
X023180Y005180D01*
X009180Y014921D02*
X009180Y014939D01*
X008680Y014930D02*
X005180Y014930D01*
X005180Y014400D02*
X005180Y014033D01*
X004680Y013783D02*
X004680Y014752D01*
X004710Y014680D02*
X002670Y014680D01*
X002680Y014700D02*
X002680Y013033D01*
X002189Y014680D02*
X002171Y014680D01*
X002171Y015180D02*
X002189Y015180D01*
X002670Y015180D02*
X004710Y015180D01*
X004680Y015108D02*
X004680Y017743D01*
X004657Y017799D02*
X004657Y018061D01*
X004757Y018302D01*
X004942Y018487D01*
X005183Y018587D01*
X005445Y018587D01*
X005686Y018487D01*
X005871Y018302D01*
X005971Y018061D01*
X005971Y017799D01*
X005871Y017558D01*
X005686Y017373D01*
X005445Y017273D01*
X005183Y017273D01*
X004942Y017373D01*
X004757Y017558D01*
X004657Y017799D01*
X004706Y017680D02*
X003283Y017680D01*
X003283Y018180D02*
X004706Y018180D01*
X004680Y018117D02*
X004680Y019930D01*
X005180Y019930D02*
X005180Y018586D01*
X005680Y018490D02*
X005680Y019930D01*
X005922Y018180D02*
X006438Y018180D01*
X006438Y017680D02*
X005922Y017680D01*
X005680Y017370D02*
X005680Y015170D01*
X005650Y015180D02*
X008591Y015180D01*
X008680Y015269D02*
X008680Y016252D01*
X008710Y016180D02*
X000180Y016180D01*
X000180Y016680D02*
X008710Y016680D01*
X008680Y016608D02*
X008680Y019252D01*
X008710Y019180D02*
X000180Y019180D01*
X000180Y019430D02*
X000680Y019930D01*
X009002Y019930D01*
X008880Y019879D01*
X008731Y019730D01*
X008650Y019535D01*
X008650Y019325D01*
X008731Y019130D01*
X008880Y018981D01*
X009075Y018900D01*
X009285Y018900D01*
X009480Y018981D01*
X009629Y019130D01*
X009680Y019252D01*
X009650Y019180D02*
X009710Y019180D01*
X009180Y018900D02*
X009180Y016960D01*
X009180Y015900D02*
X009180Y015670D01*
X008180Y015170D02*
X008180Y019930D01*
X008680Y019930D02*
X008680Y019608D01*
X008710Y019680D02*
X000430Y019680D01*
X001180Y019930D02*
X001180Y018458D01*
X001332Y018680D02*
X000180Y018680D01*
X000180Y018180D02*
X001077Y018180D01*
X001077Y017680D02*
X000180Y017680D01*
X000180Y017180D02*
X001332Y017180D01*
X001180Y017402D02*
X001180Y002708D01*
X001164Y002680D02*
X000180Y002680D01*
X000180Y002180D02*
X001050Y002180D01*
X001164Y001680D02*
X000180Y001680D01*
X000180Y001180D02*
X001652Y001180D01*
X001680Y001164D02*
X001680Y000180D01*
X001180Y000180D02*
X001180Y001652D01*
X002180Y001050D02*
X002180Y000180D01*
X003180Y002708D02*
X003180Y010638D01*
X003149Y010680D02*
X000180Y010680D01*
X000180Y011180D02*
X001562Y011180D01*
X001680Y010988D02*
X001680Y003196D01*
X001652Y003180D02*
X000180Y003180D01*
X000180Y003680D02*
X005312Y003680D01*
X005680Y003312D02*
X005680Y000180D01*
X006180Y000180D02*
X006180Y003312D01*
X006548Y003680D02*
X006685Y003680D01*
X006680Y003698D02*
X006680Y000180D01*
X006680Y004162D02*
X006680Y004381D01*
X006685Y004180D02*
X006548Y004180D01*
X005312Y004180D02*
X000180Y004180D01*
X002180Y003310D02*
X002180Y010764D01*
X000180Y013680D02*
X004631Y013680D01*
X002680Y014921D02*
X002680Y014939D01*
X002680Y015160D02*
X002680Y016914D01*
X003180Y018458D02*
X003180Y019930D01*
X002680Y019930D02*
X002680Y018946D01*
X003028Y018680D02*
X009940Y018680D01*
X010650Y019180D02*
X010710Y019180D01*
X005180Y017274D02*
X005180Y015460D01*
X004930Y015930D02*
X004680Y015930D01*
X001680Y014939D02*
X001680Y014921D01*
X001680Y018946D02*
X001680Y019930D01*
X002180Y019930D02*
X002180Y019060D01*
X006680Y010988D02*
X006680Y005479D01*
X005939Y007180D02*
X005921Y007180D01*
X005680Y007421D02*
X005680Y007439D01*
X005921Y007680D02*
X005939Y007680D01*
X006180Y007439D02*
X006180Y007421D01*
D16*
X004930Y015930D03*
M02*
