G75*
G70*
%OFA0B0*%
%FSLAX24Y24*%
%IPPOS*%
%LPD*%
%AMOC8*
5,1,8,0,0,1.08239X$1,22.5*
%
%ADD10C,0.0886*%
%ADD11C,0.1012*%
%ADD12OC8,0.0680*%
%ADD13R,0.0197X0.0984*%
%ADD14R,0.0787X0.0984*%
%ADD15C,0.0740*%
%ADD16C,0.0520*%
%ADD17C,0.0160*%
%ADD18C,0.0396*%
D10*
X006430Y004930D03*
X008930Y005930D03*
X010180Y012430D03*
X012680Y013430D03*
X017680Y008680D03*
X020180Y009680D03*
X005180Y013430D03*
X002680Y012430D03*
D11*
X002180Y011430D03*
X006180Y011430D03*
X009680Y011430D03*
X013680Y011430D03*
X017180Y007680D03*
X021180Y007680D03*
X009930Y003930D03*
X005930Y003930D03*
D12*
X015180Y016180D03*
X015180Y017180D03*
X015180Y018180D03*
X015180Y019180D03*
X018180Y019180D03*
X018180Y018180D03*
X018180Y017180D03*
X018180Y016180D03*
D13*
X006810Y016946D03*
X006495Y016946D03*
X006180Y016946D03*
X005865Y016946D03*
X005550Y016946D03*
D14*
X004408Y016946D03*
X004408Y019111D03*
X007952Y019111D03*
X007952Y016946D03*
D15*
X009180Y016430D03*
X010180Y016430D03*
X011180Y016430D03*
X009680Y014930D03*
X012680Y014930D03*
X017180Y011180D03*
X020180Y011180D03*
X011180Y019430D03*
X010180Y019430D03*
X009180Y019430D03*
X005180Y014930D03*
X002180Y014930D03*
X005930Y007430D03*
X008930Y007430D03*
D16*
X012680Y015920D02*
X012680Y016440D01*
X014180Y016440D02*
X014180Y015920D01*
X014180Y018920D02*
X014180Y019440D01*
X012680Y019440D02*
X012680Y018920D01*
D17*
X000680Y019930D02*
X000680Y000180D01*
X022680Y000180D01*
X022680Y019930D01*
X023180Y019430D01*
X023180Y000680D01*
X000180Y000680D01*
X000180Y019430D01*
X000680Y019930D01*
X008950Y019930D01*
X008892Y019900D01*
X008822Y019850D01*
X008760Y019788D01*
X008710Y019718D01*
X008670Y019641D01*
X008644Y019559D01*
X008630Y019473D01*
X008630Y019439D01*
X009171Y019439D01*
X009171Y019421D01*
X009189Y019421D01*
X009189Y018880D01*
X009223Y018880D01*
X009309Y018894D01*
X009391Y018920D01*
X009468Y018960D01*
X009538Y019010D01*
X009600Y019072D01*
X009650Y019142D01*
X009690Y019219D01*
X009691Y019224D01*
X009731Y019130D01*
X009880Y018981D01*
X010075Y018900D01*
X010285Y018900D01*
X010480Y018981D01*
X010629Y019130D01*
X010680Y019252D01*
X010680Y018420D01*
X010940Y018420D02*
X007486Y018420D01*
X007418Y018487D01*
X007177Y018587D01*
X006915Y018587D01*
X006674Y018487D01*
X006589Y018402D01*
X006544Y018383D01*
X006477Y018316D01*
X006227Y018066D01*
X005977Y017816D01*
X005971Y017803D01*
X005971Y018061D01*
X005871Y018302D01*
X005686Y018487D01*
X005445Y018587D01*
X005183Y018587D01*
X004942Y018487D01*
X004757Y018302D01*
X004657Y018061D01*
X004657Y017799D01*
X004740Y017598D01*
X003948Y017598D01*
X003855Y017504D01*
X003855Y016387D01*
X003948Y016294D01*
X004868Y016294D01*
X004962Y016387D01*
X004962Y017364D01*
X005183Y017273D01*
X005292Y017273D01*
X005292Y016511D01*
X005049Y016268D01*
X005001Y016288D01*
X004859Y016288D01*
X004727Y016234D01*
X004626Y016133D01*
X004572Y016001D01*
X004572Y015859D01*
X004626Y015727D01*
X004727Y015626D01*
X004859Y015572D01*
X005001Y015572D01*
X005133Y015626D01*
X005234Y015727D01*
X005267Y015807D01*
X005753Y016294D01*
X006629Y016294D01*
X006642Y016286D01*
X006688Y016274D01*
X006810Y016274D01*
X006932Y016274D01*
X006978Y016286D01*
X007019Y016310D01*
X007052Y016343D01*
X007076Y016384D01*
X007088Y016430D01*
X007088Y016946D01*
X007088Y017273D01*
X007177Y017273D01*
X007398Y017364D01*
X007398Y016387D01*
X007492Y016294D01*
X008412Y016294D01*
X008505Y016387D01*
X008505Y017440D01*
X008831Y017440D01*
X008940Y017331D01*
X008940Y016904D01*
X008880Y016879D01*
X008731Y016730D01*
X008650Y016535D01*
X008650Y016325D01*
X008731Y016130D01*
X008880Y015981D01*
X009075Y015900D01*
X009285Y015900D01*
X009480Y015981D01*
X009629Y016130D01*
X009654Y016190D01*
X009706Y016190D01*
X009731Y016130D01*
X009880Y015981D01*
X010075Y015900D01*
X010153Y015900D01*
X011022Y015248D01*
X011044Y015227D01*
X011060Y015220D01*
X011074Y015209D01*
X011104Y015202D01*
X011132Y015190D01*
X011150Y015190D01*
X011167Y015186D01*
X011197Y015190D01*
X012214Y015190D01*
X012150Y015035D01*
X012150Y014825D01*
X012231Y014630D01*
X012380Y014481D01*
X012440Y014456D01*
X012440Y013983D01*
X012338Y013941D01*
X012169Y013772D01*
X012077Y013550D01*
X012077Y013310D01*
X012169Y013088D01*
X012338Y012919D01*
X012560Y012827D01*
X012800Y012827D01*
X013022Y012919D01*
X013191Y013088D01*
X013283Y013310D01*
X013283Y013550D01*
X013191Y013772D01*
X013022Y013941D01*
X012920Y013983D01*
X012920Y014456D01*
X012980Y014481D01*
X013129Y014630D01*
X013210Y014825D01*
X013210Y015035D01*
X013146Y015190D01*
X013978Y015190D01*
X014066Y015227D01*
X014316Y015477D01*
X014383Y015544D01*
X014386Y015551D01*
X014418Y015564D01*
X014536Y015682D01*
X014600Y015836D01*
X014600Y016524D01*
X014536Y016678D01*
X014418Y016796D01*
X014264Y016860D01*
X014096Y016860D01*
X013942Y016796D01*
X013824Y016678D01*
X013760Y016524D01*
X013760Y015836D01*
X013824Y015682D01*
X013833Y015673D01*
X013831Y015670D01*
X013024Y015670D01*
X013036Y015682D01*
X013100Y015836D01*
X013100Y016524D01*
X013036Y016678D01*
X012918Y016796D01*
X012764Y016860D01*
X012596Y016860D01*
X012442Y016796D01*
X012324Y016678D01*
X012260Y016524D01*
X012260Y016420D01*
X011710Y016420D01*
X011710Y016535D01*
X011629Y016730D01*
X011480Y016879D01*
X011420Y016904D01*
X011420Y017851D01*
X011477Y017794D01*
X011544Y017727D01*
X011632Y017690D01*
X014331Y017690D01*
X014680Y017341D01*
X014680Y016973D01*
X014680Y016415D01*
X014660Y016395D02*
X014660Y016180D01*
X015180Y016180D01*
X015180Y007769D01*
X015091Y007680D02*
X009400Y007680D01*
X009404Y007670D02*
X009379Y007730D01*
X009230Y007879D01*
X009035Y007960D01*
X008825Y007960D01*
X008630Y007879D01*
X008481Y007730D01*
X008400Y007535D01*
X008400Y007325D01*
X008481Y007130D01*
X008630Y006981D01*
X008690Y006956D01*
X008690Y006483D01*
X008588Y006441D01*
X008419Y006272D01*
X008327Y006050D01*
X008327Y005810D01*
X008419Y005588D01*
X008588Y005419D01*
X008810Y005327D01*
X009050Y005327D01*
X009272Y005419D01*
X009441Y005588D01*
X009533Y005810D01*
X009533Y006050D01*
X009441Y006272D01*
X009272Y006441D01*
X009170Y006483D01*
X009170Y006956D01*
X009230Y006981D01*
X009379Y007130D01*
X009404Y007190D01*
X015228Y007190D01*
X015316Y007227D01*
X015383Y007294D01*
X015883Y007794D01*
X015920Y007882D01*
X015920Y017728D01*
X015883Y017816D01*
X015680Y018019D01*
X015680Y019930D01*
X015387Y019680D02*
X015680Y019387D01*
X015680Y018973D01*
X015387Y018680D01*
X017973Y018680D01*
X018387Y018680D01*
X020332Y018680D01*
X020276Y018624D02*
X020127Y018366D01*
X020050Y018079D01*
X020050Y017781D01*
X020127Y017494D01*
X020276Y017236D01*
X020486Y017026D01*
X020744Y016877D01*
X021031Y016800D01*
X021329Y016800D01*
X021616Y016877D01*
X021874Y017026D01*
X022084Y017236D01*
X022233Y017494D01*
X022310Y017781D01*
X022310Y018079D01*
X022233Y018366D01*
X022084Y018624D01*
X021874Y018834D01*
X021616Y018983D01*
X021329Y019060D01*
X021031Y019060D01*
X020744Y018983D01*
X020486Y018834D01*
X020276Y018624D01*
X020180Y018458D02*
X020180Y019930D01*
X019680Y019930D02*
X019680Y011420D01*
X019706Y011420D02*
X019279Y011420D01*
X019170Y011529D01*
X019170Y017978D01*
X019133Y018066D01*
X019066Y018133D01*
X018816Y018383D01*
X018728Y018420D01*
X018647Y018420D01*
X018387Y018680D01*
X018680Y018973D01*
X018680Y019387D01*
X018387Y019680D01*
X017973Y019680D01*
X017680Y019387D01*
X017680Y019930D01*
X018180Y019930D02*
X018180Y019680D01*
X018680Y019930D02*
X018680Y018420D01*
X018680Y018180D02*
X018930Y017930D01*
X018930Y011430D01*
X019180Y011180D01*
X020180Y011180D01*
X020180Y009680D01*
X020783Y009680D02*
X023180Y009680D01*
X023180Y009180D02*
X020533Y009180D01*
X020522Y009169D02*
X020691Y009338D01*
X020783Y009560D01*
X020783Y009800D01*
X020691Y010022D01*
X020522Y010191D01*
X020420Y010233D01*
X020420Y010706D01*
X020480Y010731D01*
X020629Y010880D01*
X020710Y011075D01*
X020710Y011285D01*
X020629Y011480D01*
X020480Y011629D01*
X020285Y011710D01*
X020075Y011710D01*
X019880Y011629D01*
X019731Y011480D01*
X019706Y011420D01*
X020002Y011680D02*
X019170Y011680D01*
X019180Y011519D02*
X019180Y019930D01*
X018680Y019180D02*
X023180Y019180D01*
X022930Y019680D02*
X014534Y019680D01*
X014536Y019678D02*
X014418Y019796D01*
X014264Y019860D01*
X014096Y019860D01*
X013942Y019796D01*
X013824Y019678D01*
X013760Y019524D01*
X013760Y018836D01*
X013824Y018682D01*
X013942Y018564D01*
X014096Y018500D01*
X014264Y018500D01*
X014418Y018564D01*
X014536Y018682D01*
X014600Y018836D01*
X014600Y019524D01*
X014536Y019678D01*
X014680Y019930D02*
X014680Y019387D01*
X014680Y018973D01*
X014680Y018387D01*
X014680Y018019D01*
X014566Y018133D01*
X014478Y018170D01*
X011779Y018170D01*
X011566Y018383D01*
X011420Y018529D01*
X011420Y018956D01*
X011480Y018981D01*
X011629Y019130D01*
X011710Y019325D01*
X011710Y019535D01*
X011629Y019730D01*
X011480Y019879D01*
X011358Y019930D01*
X022680Y019930D01*
X022180Y019930D02*
X022180Y018458D01*
X022028Y018680D02*
X023180Y018680D01*
X023180Y018180D02*
X022283Y018180D01*
X022283Y017680D02*
X023180Y017680D01*
X023180Y017180D02*
X022028Y017180D01*
X022180Y017402D02*
X022180Y002708D01*
X022196Y002680D02*
X023180Y002680D01*
X023180Y002180D02*
X022310Y002180D01*
X022310Y002329D02*
X022233Y002616D01*
X022084Y002874D01*
X021874Y003084D01*
X021616Y003233D01*
X021329Y003310D01*
X021031Y003310D01*
X020744Y003233D01*
X020486Y003084D01*
X020276Y002874D01*
X020127Y002616D01*
X020050Y002329D01*
X020050Y002031D01*
X020127Y001744D01*
X020276Y001486D01*
X020486Y001276D01*
X020744Y001127D01*
X021031Y001050D01*
X021329Y001050D01*
X021616Y001127D01*
X021874Y001276D01*
X022084Y001486D01*
X022233Y001744D01*
X022310Y002031D01*
X022310Y002329D01*
X022196Y001680D02*
X023180Y001680D01*
X023180Y001180D02*
X021708Y001180D01*
X021680Y001164D02*
X021680Y000180D01*
X021180Y000180D02*
X021180Y001050D01*
X020680Y001164D02*
X020680Y000180D01*
X020180Y000180D02*
X020180Y001652D01*
X020164Y001680D02*
X003196Y001680D01*
X003180Y001652D02*
X003180Y000180D01*
X002680Y000180D02*
X002680Y001164D01*
X002708Y001180D02*
X020652Y001180D01*
X020050Y002180D02*
X003310Y002180D01*
X003310Y002329D02*
X003233Y002616D01*
X003084Y002874D01*
X002874Y003084D01*
X002616Y003233D01*
X002329Y003310D01*
X002031Y003310D01*
X001744Y003233D01*
X001486Y003084D01*
X001276Y002874D01*
X001127Y002616D01*
X001050Y002329D01*
X001050Y002031D01*
X001127Y001744D01*
X001276Y001486D01*
X001486Y001276D01*
X001744Y001127D01*
X002031Y001050D01*
X002329Y001050D01*
X002616Y001127D01*
X002874Y001276D01*
X003084Y001486D01*
X003233Y001744D01*
X003310Y002031D01*
X003310Y002329D01*
X003196Y002680D02*
X007698Y002680D01*
X007680Y002685D02*
X007680Y000180D01*
X007180Y000180D02*
X007180Y002899D01*
X007152Y002916D02*
X007441Y002749D01*
X007763Y002663D01*
X008097Y002663D01*
X008419Y002749D01*
X008708Y002916D01*
X008944Y003152D01*
X009111Y003441D01*
X009197Y003763D01*
X009197Y004097D01*
X009111Y004419D01*
X008944Y004708D01*
X008708Y004944D01*
X008419Y005111D01*
X008097Y005197D01*
X007763Y005197D01*
X007441Y005111D01*
X007152Y004944D01*
X007046Y004839D01*
X007050Y004862D01*
X006498Y004862D01*
X006498Y004998D01*
X007050Y004998D01*
X007038Y005076D01*
X007007Y005169D01*
X006963Y005256D01*
X006905Y005336D01*
X006836Y005405D01*
X006756Y005463D01*
X006669Y005507D01*
X006576Y005538D01*
X006498Y005550D01*
X006498Y004998D01*
X006362Y004998D01*
X006362Y004862D01*
X006498Y004862D01*
X006498Y004310D01*
X006576Y004322D01*
X006669Y004353D01*
X006741Y004389D01*
X006663Y004097D01*
X006663Y003763D01*
X006749Y003441D01*
X006916Y003152D01*
X007152Y002916D01*
X006899Y003180D02*
X002708Y003180D01*
X002680Y003196D02*
X002680Y010988D01*
X002745Y011053D02*
X002846Y011297D01*
X002846Y011563D01*
X002745Y011807D01*
X002612Y011940D01*
X002612Y012362D01*
X002748Y012362D01*
X002748Y012498D01*
X003300Y012498D01*
X003288Y012576D01*
X003257Y012669D01*
X003213Y012756D01*
X003155Y012836D01*
X003086Y012905D01*
X003006Y012963D01*
X002919Y013007D01*
X002826Y013038D01*
X002748Y013050D01*
X002748Y012498D01*
X002612Y012498D01*
X002612Y012362D01*
X002060Y012362D01*
X002072Y012284D01*
X002103Y012191D01*
X002147Y012104D01*
X002153Y012096D01*
X002047Y012096D01*
X001803Y011995D01*
X001615Y011807D01*
X001514Y011563D01*
X001514Y011297D01*
X001615Y011053D01*
X001803Y010865D01*
X002047Y010764D01*
X002313Y010764D01*
X002557Y010865D01*
X002745Y011053D01*
X002798Y011180D02*
X002935Y011180D01*
X002913Y011263D02*
X002999Y010941D01*
X003166Y010652D01*
X003402Y010416D01*
X003691Y010249D01*
X004013Y010163D01*
X004347Y010163D01*
X004669Y010249D01*
X004958Y010416D01*
X005194Y010652D01*
X005361Y010941D01*
X005447Y011263D01*
X005447Y011597D01*
X005361Y011919D01*
X005194Y012208D01*
X004958Y012444D01*
X004669Y012611D01*
X004347Y012697D01*
X004013Y012697D01*
X003691Y012611D01*
X003402Y012444D01*
X003296Y012339D01*
X003300Y012362D01*
X002748Y012362D01*
X002748Y011810D01*
X002826Y011822D01*
X002919Y011853D01*
X002991Y011889D01*
X002913Y011597D01*
X002913Y011263D01*
X002935Y011680D02*
X002798Y011680D01*
X002680Y011872D02*
X002680Y012362D01*
X002680Y012498D02*
X002680Y014752D01*
X002650Y014680D02*
X004710Y014680D01*
X004731Y014630D02*
X004880Y014481D01*
X004940Y014456D01*
X004940Y013983D01*
X004838Y013941D01*
X004669Y013772D01*
X004577Y013550D01*
X004577Y013310D01*
X004669Y013088D01*
X004838Y012919D01*
X005060Y012827D01*
X005300Y012827D01*
X005522Y012919D01*
X005691Y013088D01*
X005783Y013310D01*
X005783Y013550D01*
X005691Y013772D01*
X005522Y013941D01*
X005420Y013983D01*
X005420Y014456D01*
X005480Y014481D01*
X005629Y014630D01*
X005710Y014825D01*
X005710Y015035D01*
X005629Y015230D01*
X005480Y015379D01*
X005285Y015460D01*
X005075Y015460D01*
X004880Y015379D01*
X004731Y015230D01*
X004650Y015035D01*
X004650Y014825D01*
X004731Y014630D01*
X004680Y014752D02*
X004680Y013783D01*
X004631Y013680D02*
X000180Y013680D01*
X000180Y013180D02*
X004631Y013180D01*
X004680Y013077D02*
X004680Y012605D01*
X004412Y012680D02*
X009608Y012680D01*
X009603Y012669D02*
X009572Y012576D01*
X009560Y012498D01*
X010112Y012498D01*
X010112Y012362D01*
X010248Y012362D01*
X010248Y012498D01*
X010800Y012498D01*
X010788Y012576D01*
X010757Y012669D01*
X010713Y012756D01*
X010655Y012836D01*
X010586Y012905D01*
X010506Y012963D01*
X010419Y013007D01*
X010326Y013038D01*
X010248Y013050D01*
X010248Y012498D01*
X010112Y012498D01*
X010112Y013050D01*
X010034Y013038D01*
X009941Y013007D01*
X009854Y012963D01*
X009774Y012905D01*
X009705Y012836D01*
X009647Y012756D01*
X009603Y012669D01*
X009680Y012802D02*
X009680Y014400D01*
X009785Y014400D02*
X009980Y014481D01*
X010129Y014630D01*
X010210Y014825D01*
X010210Y015035D01*
X010129Y015230D01*
X009980Y015379D01*
X009785Y015460D01*
X009575Y015460D01*
X009380Y015379D01*
X009231Y015230D01*
X009150Y015035D01*
X009150Y014825D01*
X009231Y014630D01*
X009380Y014481D01*
X009575Y014400D01*
X009785Y014400D01*
X010150Y014680D02*
X012210Y014680D01*
X012180Y014752D02*
X012180Y013783D01*
X012131Y013680D02*
X005729Y013680D01*
X005680Y013783D02*
X005680Y014752D01*
X005650Y014680D02*
X009210Y014680D01*
X009180Y014752D02*
X009180Y011872D01*
X009115Y011807D02*
X009014Y011563D01*
X009014Y011297D01*
X009115Y011053D01*
X009303Y010865D01*
X009547Y010764D01*
X009813Y010764D01*
X010057Y010865D01*
X010245Y011053D01*
X010346Y011297D01*
X010346Y011563D01*
X010245Y011807D01*
X010112Y011940D01*
X010112Y012362D01*
X009560Y012362D01*
X009572Y012284D01*
X009603Y012191D01*
X009647Y012104D01*
X009653Y012096D01*
X009547Y012096D01*
X009303Y011995D01*
X009115Y011807D01*
X009062Y011680D02*
X006798Y011680D01*
X006846Y011563D02*
X006745Y011807D01*
X006557Y011995D01*
X006313Y012096D01*
X006047Y012096D01*
X005803Y011995D01*
X005615Y011807D01*
X005514Y011563D01*
X005514Y011297D01*
X005615Y011053D01*
X005803Y010865D01*
X006047Y010764D01*
X006313Y010764D01*
X006557Y010865D01*
X006745Y011053D01*
X006846Y011297D01*
X006846Y011563D01*
X006680Y011872D02*
X006680Y016276D01*
X006810Y016274D02*
X006810Y016946D01*
X007088Y016946D01*
X006810Y016946D01*
X006810Y016946D01*
X006810Y016274D01*
X006810Y016680D02*
X006810Y016680D01*
X006810Y016946D02*
X006810Y016946D01*
X007088Y017180D02*
X007398Y017180D01*
X007180Y017274D02*
X007180Y004961D01*
X007002Y005180D02*
X007698Y005180D01*
X007680Y005175D02*
X007680Y016294D01*
X007398Y016680D02*
X007088Y016680D01*
X006495Y016946D02*
X006495Y017495D01*
X006680Y017680D01*
X008930Y017680D01*
X009180Y017430D01*
X009180Y016430D01*
X010180Y016430D01*
X010180Y016180D01*
X011180Y015430D01*
X012680Y015430D01*
X012930Y015430D01*
X013930Y015430D01*
X014180Y015680D01*
X014180Y016180D01*
X014600Y016180D02*
X015180Y016180D01*
X015180Y015660D01*
X015395Y015660D01*
X015440Y015705D01*
X015440Y008029D01*
X015081Y007670D01*
X009404Y007670D01*
X009680Y007670D02*
X009680Y010764D01*
X009180Y010988D02*
X009180Y007900D01*
X008680Y007900D02*
X008680Y016252D01*
X008710Y016180D02*
X005639Y016180D01*
X005680Y016221D02*
X005680Y015108D01*
X005650Y015180D02*
X009210Y015180D01*
X009180Y015108D02*
X009180Y015900D01*
X009650Y016180D02*
X009710Y016180D01*
X009680Y016190D02*
X009680Y015460D01*
X010150Y015180D02*
X012210Y015180D01*
X012180Y015190D02*
X012180Y015108D01*
X011680Y015190D02*
X011680Y012697D01*
X011847Y012697D02*
X011513Y012697D01*
X011191Y012611D01*
X010902Y012444D01*
X010796Y012339D01*
X010800Y012362D01*
X010248Y012362D01*
X010248Y011810D01*
X010326Y011822D01*
X010419Y011853D01*
X010491Y011889D01*
X010413Y011597D01*
X010413Y011263D01*
X010499Y010941D01*
X010666Y010652D01*
X010902Y010416D01*
X011191Y010249D01*
X011513Y010163D01*
X011847Y010163D01*
X012169Y010249D01*
X012458Y010416D01*
X012694Y010652D01*
X012861Y010941D01*
X012947Y011263D01*
X012947Y011597D01*
X012861Y011919D01*
X012694Y012208D01*
X012458Y012444D01*
X012169Y012611D01*
X011847Y012697D01*
X011912Y012680D02*
X015440Y012680D01*
X015920Y012680D02*
X018690Y012680D01*
X019170Y012680D02*
X023180Y012680D01*
X023180Y013180D02*
X019170Y013180D01*
X018690Y013180D02*
X015920Y013180D01*
X015440Y013180D02*
X013229Y013180D01*
X013180Y013077D02*
X013180Y011872D01*
X013115Y011807D02*
X013014Y011563D01*
X013014Y011297D01*
X013115Y011053D01*
X013303Y010865D01*
X013547Y010764D01*
X013813Y010764D01*
X014057Y010865D01*
X014245Y011053D01*
X014346Y011297D01*
X014346Y011563D01*
X014245Y011807D01*
X014057Y011995D01*
X013813Y012096D01*
X013547Y012096D01*
X013303Y011995D01*
X013115Y011807D01*
X013062Y011680D02*
X012925Y011680D01*
X012925Y011180D02*
X013062Y011180D01*
X013180Y010988D02*
X013180Y007670D01*
X013180Y007190D02*
X013180Y000180D01*
X012680Y000180D02*
X012680Y007190D01*
X012680Y007670D02*
X012680Y010638D01*
X012711Y010680D02*
X015440Y010680D01*
X015920Y010680D02*
X017002Y010680D01*
X017075Y010650D02*
X016880Y010731D01*
X016731Y010880D01*
X016650Y011075D01*
X016650Y011285D01*
X016731Y011480D01*
X016880Y011629D01*
X017075Y011710D01*
X017285Y011710D01*
X017480Y011629D01*
X017629Y011480D01*
X017710Y011285D01*
X017710Y011075D01*
X017629Y010880D01*
X017480Y010731D01*
X017285Y010650D01*
X017075Y010650D01*
X017180Y010650D02*
X017180Y009052D01*
X017205Y009086D02*
X017147Y009006D01*
X017103Y008919D01*
X017072Y008826D01*
X017060Y008748D01*
X017612Y008748D01*
X017612Y008612D01*
X017748Y008612D01*
X017748Y008748D01*
X018300Y008748D01*
X018288Y008826D01*
X018257Y008919D01*
X018213Y009006D01*
X018155Y009086D01*
X018086Y009155D01*
X018006Y009213D01*
X017919Y009257D01*
X017826Y009288D01*
X017748Y009300D01*
X017748Y008748D01*
X017612Y008748D01*
X017612Y009300D01*
X017534Y009288D01*
X017441Y009257D01*
X017354Y009213D01*
X017274Y009155D01*
X017205Y009086D01*
X017308Y009180D02*
X015920Y009180D01*
X015440Y009180D02*
X000180Y009180D01*
X000180Y009680D02*
X015440Y009680D01*
X015920Y009680D02*
X019577Y009680D01*
X019577Y009800D02*
X019577Y009560D01*
X019669Y009338D01*
X019838Y009169D01*
X020060Y009077D01*
X020300Y009077D01*
X020522Y009169D01*
X020680Y009327D02*
X020680Y008122D01*
X020738Y008180D02*
X020355Y008180D01*
X020361Y008169D02*
X020194Y008458D01*
X019958Y008694D01*
X019669Y008861D01*
X019347Y008947D01*
X019013Y008947D01*
X018691Y008861D01*
X018402Y008694D01*
X018296Y008589D01*
X018300Y008612D01*
X017748Y008612D01*
X017748Y008060D01*
X017826Y008072D01*
X017919Y008103D01*
X017991Y008139D01*
X017913Y007847D01*
X017913Y007513D01*
X017999Y007191D01*
X018166Y006902D01*
X018402Y006666D01*
X018691Y006499D01*
X019013Y006413D01*
X019347Y006413D01*
X019669Y006499D01*
X019958Y006666D01*
X020194Y006902D01*
X020361Y007191D01*
X020447Y007513D01*
X020447Y007847D01*
X020361Y008169D01*
X020615Y008057D02*
X020514Y007813D01*
X020514Y007547D01*
X020615Y007303D01*
X020803Y007115D01*
X021047Y007014D01*
X021313Y007014D01*
X021557Y007115D01*
X021745Y007303D01*
X021846Y007547D01*
X021846Y007813D01*
X021745Y008057D01*
X021557Y008245D01*
X021313Y008346D01*
X021047Y008346D01*
X020803Y008245D01*
X020615Y008057D01*
X020514Y007680D02*
X020447Y007680D01*
X020680Y007238D02*
X020680Y003196D01*
X020652Y003180D02*
X008961Y003180D01*
X008680Y002899D02*
X008680Y000180D01*
X008180Y000180D02*
X008180Y002685D01*
X008162Y002680D02*
X020164Y002680D01*
X020180Y002708D02*
X020180Y006888D01*
X019972Y006680D02*
X023180Y006680D01*
X023180Y006180D02*
X009479Y006180D01*
X009180Y006479D02*
X009180Y006960D01*
X009170Y006680D02*
X018388Y006680D01*
X018180Y006888D02*
X018180Y000180D01*
X017680Y000180D02*
X017680Y007238D01*
X017622Y007180D02*
X018005Y007180D01*
X017745Y007303D02*
X017846Y007547D01*
X017846Y007813D01*
X017745Y008057D01*
X017612Y008190D01*
X017612Y008612D01*
X017060Y008612D01*
X017072Y008534D01*
X017103Y008441D01*
X017147Y008354D01*
X017153Y008346D01*
X017047Y008346D01*
X016803Y008245D01*
X016615Y008057D01*
X016514Y007813D01*
X016514Y007547D01*
X016615Y007303D01*
X016803Y007115D01*
X017047Y007014D01*
X017313Y007014D01*
X017557Y007115D01*
X017745Y007303D01*
X017846Y007680D02*
X017913Y007680D01*
X017680Y008122D02*
X017680Y008612D01*
X017748Y008680D02*
X018388Y008680D01*
X018180Y008612D02*
X018180Y008748D01*
X018180Y009052D02*
X018180Y015680D01*
X017973Y015680D02*
X018387Y015680D01*
X018690Y015680D01*
X018680Y015973D02*
X018387Y015680D01*
X018680Y015973D02*
X018680Y016387D01*
X018387Y016680D01*
X018690Y016680D01*
X018680Y016973D02*
X018387Y016680D01*
X017973Y016680D01*
X015920Y016680D01*
X015920Y016180D02*
X017680Y016180D01*
X017680Y016387D02*
X017680Y015973D01*
X017680Y011358D01*
X017710Y011180D02*
X018841Y011180D01*
X018794Y011227D02*
X018977Y011044D01*
X019044Y010977D01*
X019132Y010940D01*
X019706Y010940D01*
X019731Y010880D01*
X019880Y010731D01*
X019940Y010706D01*
X019940Y010233D01*
X019838Y010191D01*
X019669Y010022D01*
X019577Y009800D01*
X019680Y010033D02*
X019680Y010940D01*
X019940Y010680D02*
X017358Y010680D01*
X017680Y011002D02*
X017680Y008748D01*
X017612Y008680D02*
X015920Y008680D01*
X015440Y008680D02*
X000180Y008680D01*
X000180Y008180D02*
X015440Y008180D01*
X015680Y007930D02*
X015180Y007430D01*
X008930Y007430D01*
X008930Y005930D01*
X008680Y006479D02*
X008680Y006960D01*
X008690Y006680D02*
X000180Y006680D01*
X000180Y006180D02*
X008381Y006180D01*
X008381Y005680D02*
X000180Y005680D01*
X000180Y005180D02*
X005858Y005180D01*
X005853Y005169D02*
X005822Y005076D01*
X005810Y004998D01*
X006362Y004998D01*
X006362Y005550D01*
X006284Y005538D01*
X006191Y005507D01*
X006104Y005463D01*
X006024Y005405D01*
X005955Y005336D01*
X005897Y005256D01*
X005853Y005169D01*
X005810Y004862D02*
X005822Y004784D01*
X005853Y004691D01*
X005897Y004604D01*
X005903Y004596D01*
X005797Y004596D01*
X005553Y004495D01*
X005365Y004307D01*
X005264Y004063D01*
X005264Y003797D01*
X005365Y003553D01*
X005553Y003365D01*
X005797Y003264D01*
X006063Y003264D01*
X006307Y003365D01*
X006495Y003553D01*
X006596Y003797D01*
X006596Y004063D01*
X006495Y004307D01*
X006362Y004440D01*
X006362Y004862D01*
X005810Y004862D01*
X005858Y004680D02*
X000180Y004680D01*
X000180Y004180D02*
X005312Y004180D01*
X005680Y004548D02*
X005680Y006960D01*
X005630Y006981D02*
X005825Y006900D01*
X006035Y006900D01*
X006230Y006981D01*
X006379Y007130D01*
X006460Y007325D01*
X006460Y007535D01*
X006379Y007730D01*
X006230Y007879D01*
X006035Y007960D01*
X005825Y007960D01*
X005630Y007879D01*
X005481Y007730D01*
X005400Y007535D01*
X005400Y007325D01*
X005481Y007130D01*
X005630Y006981D01*
X005460Y007180D02*
X000180Y007180D01*
X000180Y007680D02*
X005460Y007680D01*
X005680Y007900D02*
X005680Y010988D01*
X005562Y011180D02*
X005425Y011180D01*
X005425Y011680D02*
X005562Y011680D01*
X005680Y011872D02*
X005680Y013077D01*
X005729Y013180D02*
X012131Y013180D01*
X012180Y013077D02*
X012180Y012605D01*
X012680Y012827D02*
X012680Y012222D01*
X012711Y012180D02*
X015440Y012180D01*
X015920Y012180D02*
X018690Y012180D01*
X019170Y012180D02*
X023180Y012180D01*
X023180Y011680D02*
X020358Y011680D01*
X020180Y011710D02*
X020180Y017402D01*
X020332Y017180D02*
X019170Y017180D01*
X018690Y017180D02*
X018680Y017180D01*
X018680Y016973D02*
X018680Y017387D01*
X018387Y017680D01*
X018690Y017680D01*
X018690Y017831D02*
X018690Y011382D01*
X018727Y011294D01*
X018794Y011227D01*
X018794Y011227D01*
X018977Y011044D02*
X018977Y011044D01*
X019180Y010940D02*
X019180Y008947D01*
X019680Y008855D02*
X019680Y009327D01*
X019827Y009180D02*
X018052Y009180D01*
X017748Y009180D02*
X017612Y009180D01*
X017180Y008748D02*
X017180Y008612D01*
X017622Y008180D02*
X017748Y008180D01*
X016738Y008180D02*
X015920Y008180D01*
X015680Y007930D02*
X015680Y017680D01*
X015180Y018180D01*
X015180Y018680D02*
X015180Y018680D01*
X014973Y018680D02*
X015387Y018680D01*
X014973Y018680D01*
X014534Y018680D01*
X014680Y018387D02*
X014973Y018680D01*
X014680Y018973D01*
X014680Y019180D02*
X014600Y019180D01*
X014680Y019387D02*
X014973Y019680D01*
X015387Y019680D01*
X015180Y019680D02*
X015180Y019930D01*
X015680Y019180D02*
X017680Y019180D01*
X017680Y019387D02*
X017680Y018973D01*
X017680Y018387D01*
X017680Y017973D01*
X017680Y017387D01*
X017680Y016973D01*
X017680Y016387D01*
X017973Y016680D01*
X017680Y016973D01*
X017680Y017180D02*
X015920Y017180D01*
X015920Y017680D02*
X017973Y017680D01*
X018387Y017680D01*
X018614Y017907D01*
X018690Y017831D01*
X018680Y017841D02*
X018680Y008855D01*
X019972Y008680D02*
X023180Y008680D01*
X023180Y008180D02*
X021622Y008180D01*
X021680Y008122D02*
X021680Y016914D01*
X021180Y016800D02*
X021180Y008346D01*
X021846Y007680D02*
X023180Y007680D01*
X023180Y007180D02*
X021622Y007180D01*
X021680Y007238D02*
X021680Y003196D01*
X021708Y003180D02*
X023180Y003180D01*
X023180Y003680D02*
X010548Y003680D01*
X010596Y003797D02*
X010495Y003553D01*
X010307Y003365D01*
X010063Y003264D01*
X009797Y003264D01*
X009553Y003365D01*
X009365Y003553D01*
X009264Y003797D01*
X009264Y004063D01*
X009365Y004307D01*
X009553Y004495D01*
X009797Y004596D01*
X010063Y004596D01*
X010307Y004495D01*
X010495Y004307D01*
X010596Y004063D01*
X010596Y003797D01*
X010548Y004180D02*
X023180Y004180D01*
X023180Y004680D02*
X008961Y004680D01*
X008680Y004961D02*
X008680Y005381D01*
X009180Y005381D02*
X009180Y004162D01*
X009175Y004180D02*
X009312Y004180D01*
X009680Y004548D02*
X009680Y007190D01*
X009400Y007180D02*
X016738Y007180D01*
X016680Y007238D02*
X016680Y000180D01*
X016180Y000180D02*
X016180Y019930D01*
X016680Y019930D02*
X016680Y011358D01*
X016650Y011180D02*
X015920Y011180D01*
X015440Y011180D02*
X014298Y011180D01*
X014180Y010988D02*
X014180Y007670D01*
X014180Y007190D02*
X014180Y000180D01*
X013680Y000180D02*
X013680Y007190D01*
X013680Y007670D02*
X013680Y010764D01*
X014298Y011680D02*
X015440Y011680D01*
X015920Y011680D02*
X017002Y011680D01*
X017180Y011710D02*
X017180Y019930D01*
X017680Y018973D02*
X017973Y018680D01*
X017680Y018387D01*
X017680Y018180D02*
X015680Y018180D01*
X015680Y018019D02*
X015680Y018387D01*
X015387Y018680D01*
X014680Y018180D02*
X011769Y018180D01*
X011680Y018269D02*
X011680Y019252D01*
X011650Y019180D02*
X012260Y019180D01*
X012260Y019524D02*
X012324Y019678D01*
X012442Y019796D01*
X012596Y019860D01*
X012764Y019860D01*
X012918Y019796D01*
X013036Y019678D01*
X013100Y019524D01*
X013100Y018836D01*
X013036Y018682D01*
X012918Y018564D01*
X012764Y018500D01*
X012596Y018500D01*
X012442Y018564D01*
X012324Y018682D01*
X012260Y018836D01*
X012260Y019524D01*
X012326Y019680D02*
X011650Y019680D01*
X011680Y019608D02*
X011680Y019930D01*
X012180Y019930D02*
X012180Y018170D01*
X012180Y017690D02*
X012180Y016420D01*
X012326Y016680D02*
X011650Y016680D01*
X011680Y016608D02*
X011680Y017690D01*
X011680Y017930D02*
X014430Y017930D01*
X015180Y017180D01*
X014680Y017180D02*
X011420Y017180D01*
X011420Y017680D02*
X014341Y017680D01*
X014180Y017690D02*
X014180Y016860D01*
X013826Y016680D02*
X013034Y016680D01*
X012680Y016860D02*
X012680Y017690D01*
X012680Y018170D02*
X012680Y018500D01*
X013034Y018680D02*
X013826Y018680D01*
X014180Y018500D02*
X014180Y018170D01*
X013680Y018170D02*
X013680Y019930D01*
X013826Y019680D02*
X013034Y019680D01*
X013180Y019930D02*
X013180Y018170D01*
X013180Y017690D02*
X013180Y015670D01*
X013034Y015680D02*
X013826Y015680D01*
X013680Y015670D02*
X013680Y017690D01*
X014680Y016973D02*
X014959Y016694D01*
X014660Y016395D01*
X014660Y016180D02*
X014660Y015965D01*
X014965Y015660D01*
X015180Y015660D01*
X015180Y016180D01*
X015180Y016180D01*
X015180Y016180D01*
X014660Y016180D01*
X014680Y016180D02*
X014680Y016180D01*
X014680Y015945D02*
X014680Y007670D01*
X014680Y007190D02*
X014680Y000180D01*
X015180Y000180D02*
X015180Y007190D01*
X015383Y007294D02*
X015383Y007294D01*
X015680Y007591D02*
X015680Y000180D01*
X017180Y000180D02*
X017180Y007014D01*
X016514Y007680D02*
X015769Y007680D01*
X016680Y008122D02*
X016680Y011002D01*
X017358Y011680D02*
X018690Y011680D01*
X019827Y010180D02*
X015920Y010180D01*
X015440Y010180D02*
X011912Y010180D01*
X011680Y010163D02*
X011680Y007670D01*
X011680Y007190D02*
X011680Y000180D01*
X012180Y000180D02*
X012180Y007190D01*
X012180Y007670D02*
X012180Y010255D01*
X011448Y010180D02*
X004412Y010180D01*
X004180Y010163D02*
X004180Y000180D01*
X003680Y000180D02*
X003680Y010255D01*
X003948Y010180D02*
X000180Y010180D01*
X000180Y010680D02*
X003149Y010680D01*
X003180Y010638D02*
X003180Y002708D01*
X002180Y003310D02*
X002180Y010764D01*
X001680Y010988D02*
X001680Y003196D01*
X001652Y003180D02*
X000180Y003180D01*
X000180Y002680D02*
X001164Y002680D01*
X001180Y002708D02*
X001180Y017402D01*
X001127Y017494D02*
X001276Y017236D01*
X001486Y017026D01*
X001744Y016877D01*
X002031Y016800D01*
X002329Y016800D01*
X002616Y016877D01*
X002874Y017026D01*
X003084Y017236D01*
X003233Y017494D01*
X003310Y017781D01*
X003310Y018079D01*
X003233Y018366D01*
X003084Y018624D01*
X002874Y018834D01*
X002616Y018983D01*
X002329Y019060D01*
X002031Y019060D01*
X001744Y018983D01*
X001486Y018834D01*
X001276Y018624D01*
X001127Y018366D01*
X001050Y018079D01*
X001050Y017781D01*
X001127Y017494D01*
X001077Y017680D02*
X000180Y017680D01*
X000180Y018180D02*
X001077Y018180D01*
X001180Y018458D02*
X001180Y019930D01*
X001680Y019930D02*
X001680Y018946D01*
X001332Y018680D02*
X000180Y018680D01*
X000180Y019180D02*
X003855Y019180D01*
X003855Y019670D02*
X003855Y018553D01*
X003948Y018459D01*
X004868Y018459D01*
X004962Y018553D01*
X004962Y019670D01*
X004868Y019763D01*
X003948Y019763D01*
X003855Y019670D01*
X003865Y019680D02*
X000430Y019680D01*
X000180Y019430D02*
X000180Y000680D01*
X000680Y000180D01*
X022680Y000180D01*
X023180Y000680D01*
X022180Y000180D02*
X022180Y001652D01*
X021180Y003310D02*
X021180Y007014D01*
X020738Y007180D02*
X020355Y007180D01*
X019680Y006505D02*
X019680Y000180D01*
X019180Y000180D02*
X019180Y006413D01*
X018680Y006505D02*
X018680Y000180D01*
X023180Y005180D02*
X008162Y005180D01*
X008180Y005175D02*
X008180Y016294D01*
X008505Y016680D02*
X008710Y016680D01*
X008680Y016608D02*
X008680Y017440D01*
X008505Y017180D02*
X008940Y017180D01*
X009180Y018420D02*
X009180Y019421D01*
X009171Y019421D02*
X009171Y018880D01*
X009137Y018880D01*
X009051Y018894D01*
X008969Y018920D01*
X008892Y018960D01*
X008822Y019010D01*
X008760Y019072D01*
X008710Y019142D01*
X008670Y019219D01*
X008644Y019301D01*
X008630Y019387D01*
X008630Y019421D01*
X009171Y019421D01*
X009171Y019180D02*
X009189Y019180D01*
X009670Y019180D02*
X009710Y019180D01*
X009680Y019200D02*
X009680Y018420D01*
X010180Y018420D02*
X010180Y018900D01*
X010650Y019180D02*
X010710Y019180D01*
X010731Y019130D02*
X010680Y019252D01*
X010731Y019130D02*
X010880Y018981D01*
X010940Y018956D01*
X010940Y018420D01*
X010930Y018180D02*
X011180Y017930D01*
X011180Y016430D01*
X011430Y016180D01*
X012680Y016180D01*
X013100Y016180D02*
X013760Y016180D01*
X014534Y015680D02*
X014945Y015680D01*
X015180Y015680D02*
X015180Y015680D01*
X015415Y015680D02*
X015440Y015680D01*
X015920Y015680D02*
X017973Y015680D01*
X017680Y015973D01*
X017973Y016680D02*
X018387Y016680D01*
X018180Y016680D02*
X018180Y016680D01*
X018680Y016180D02*
X018690Y016180D01*
X019170Y016180D02*
X023180Y016180D01*
X023180Y015680D02*
X019170Y015680D01*
X019170Y015180D02*
X023180Y015180D01*
X023180Y014680D02*
X019170Y014680D01*
X018690Y014680D02*
X015920Y014680D01*
X015440Y014680D02*
X013150Y014680D01*
X013180Y014752D02*
X013180Y013783D01*
X013229Y013680D02*
X015440Y013680D01*
X015920Y013680D02*
X018690Y013680D01*
X019170Y013680D02*
X023180Y013680D01*
X023180Y014180D02*
X019170Y014180D01*
X018690Y014180D02*
X015920Y014180D01*
X015440Y014180D02*
X012920Y014180D01*
X012440Y014180D02*
X005420Y014180D01*
X004940Y014180D02*
X000180Y014180D01*
X000180Y014680D02*
X001710Y014680D01*
X001731Y014630D02*
X001880Y014481D01*
X002075Y014400D01*
X002285Y014400D01*
X002480Y014481D01*
X002629Y014630D01*
X002710Y014825D01*
X002710Y015035D01*
X002629Y015230D01*
X002480Y015379D01*
X002285Y015460D01*
X002075Y015460D01*
X001880Y015379D01*
X001731Y015230D01*
X001650Y015035D01*
X001650Y014825D01*
X001731Y014630D01*
X001680Y014752D02*
X001680Y011872D01*
X001562Y011680D02*
X000180Y011680D01*
X000180Y011180D02*
X001562Y011180D01*
X002108Y012180D02*
X000180Y012180D01*
X000180Y012680D02*
X002108Y012680D01*
X002103Y012669D02*
X002072Y012576D01*
X002060Y012498D01*
X002612Y012498D01*
X002612Y013050D01*
X002534Y013038D01*
X002441Y013007D01*
X002354Y012963D01*
X002274Y012905D01*
X002205Y012836D01*
X002147Y012756D01*
X002103Y012669D01*
X002180Y012802D02*
X002180Y014400D01*
X002680Y015108D02*
X002680Y016914D01*
X003028Y017180D02*
X003855Y017180D01*
X003855Y016680D02*
X000180Y016680D01*
X000180Y016180D02*
X004674Y016180D01*
X004680Y016186D02*
X004680Y016294D01*
X004930Y015930D02*
X005050Y015930D01*
X005550Y016430D01*
X005550Y016946D01*
X005292Y017180D02*
X004962Y017180D01*
X005180Y017274D02*
X005180Y016399D01*
X005292Y016680D02*
X004962Y016680D01*
X004180Y016294D02*
X004180Y012697D01*
X003948Y012680D02*
X003252Y012680D01*
X003180Y012802D02*
X003180Y017402D01*
X003283Y017680D02*
X004706Y017680D01*
X004680Y017743D02*
X004680Y017598D01*
X004180Y017598D02*
X004180Y018459D01*
X003855Y018680D02*
X003028Y018680D01*
X003180Y018458D02*
X003180Y019930D01*
X002680Y019930D02*
X002680Y018946D01*
X002180Y019060D02*
X002180Y019930D01*
X003680Y019930D02*
X003680Y012605D01*
X003180Y012498D02*
X003180Y012362D01*
X002748Y012180D02*
X002612Y012180D01*
X002180Y012362D02*
X002180Y012498D01*
X002612Y012680D02*
X002748Y012680D01*
X005180Y012827D02*
X005180Y012222D01*
X005211Y012180D02*
X009608Y012180D01*
X009680Y012362D02*
X009680Y012498D01*
X010112Y012680D02*
X010248Y012680D01*
X010180Y012498D02*
X010180Y014752D01*
X010180Y015108D02*
X010180Y015880D01*
X010447Y015680D02*
X005186Y015680D01*
X005180Y015674D02*
X005180Y015460D01*
X004680Y015674D02*
X004680Y015108D01*
X004710Y015180D02*
X002650Y015180D01*
X002180Y015460D02*
X002180Y016800D01*
X001680Y016914D02*
X001680Y015108D01*
X001710Y015180D02*
X000180Y015180D01*
X000180Y015680D02*
X004674Y015680D01*
X005180Y014930D02*
X005180Y013430D01*
X006180Y012096D02*
X006180Y016294D01*
X006180Y016946D02*
X006180Y017680D01*
X006430Y017930D01*
X006680Y018180D01*
X010930Y018180D01*
X011180Y018430D02*
X011430Y018180D01*
X011680Y017930D01*
X011180Y018430D02*
X011180Y019430D01*
X010940Y018680D02*
X008505Y018680D01*
X008505Y018553D02*
X008505Y019670D01*
X008412Y019763D01*
X007492Y019763D01*
X007398Y019670D01*
X007398Y018553D01*
X007492Y018459D01*
X008412Y018459D01*
X008505Y018553D01*
X008680Y018420D02*
X008680Y019200D01*
X008690Y019180D02*
X008505Y019180D01*
X008680Y019421D02*
X008680Y019439D01*
X008680Y019660D02*
X008680Y019930D01*
X008690Y019680D02*
X008495Y019680D01*
X008180Y019763D02*
X008180Y019930D01*
X007680Y019930D02*
X007680Y019763D01*
X007408Y019680D02*
X004952Y019680D01*
X004680Y019763D02*
X004680Y019930D01*
X005180Y019930D02*
X005180Y018586D01*
X004962Y018680D02*
X007398Y018680D01*
X007180Y018586D02*
X007180Y019930D01*
X006680Y019930D02*
X006680Y018490D01*
X006341Y018180D02*
X005922Y018180D01*
X006180Y018019D02*
X006180Y019930D01*
X005680Y019930D02*
X005680Y018490D01*
X004962Y019180D02*
X007398Y019180D01*
X007680Y018459D02*
X007680Y018420D01*
X008180Y018420D02*
X008180Y018459D01*
X011420Y018680D02*
X012326Y018680D01*
X013100Y019180D02*
X013760Y019180D01*
X014180Y019860D02*
X014180Y019930D01*
X012680Y019930D02*
X012680Y019860D01*
X014534Y016680D02*
X014945Y016680D01*
X014180Y015341D02*
X014180Y011872D01*
X013680Y012096D02*
X013680Y015190D01*
X013180Y015190D02*
X013180Y015108D01*
X013150Y015180D02*
X015440Y015180D01*
X015920Y015180D02*
X018690Y015180D01*
X019170Y016680D02*
X023180Y016680D01*
X020680Y016914D02*
X020680Y011358D01*
X020710Y011180D02*
X023180Y011180D01*
X023180Y010680D02*
X020420Y010680D01*
X020680Y011002D02*
X020680Y010033D01*
X020533Y010180D02*
X023180Y010180D01*
X020180Y009077D02*
X020180Y008472D01*
X023180Y005680D02*
X009479Y005680D01*
X010180Y004548D02*
X010180Y007190D01*
X010180Y007670D02*
X010180Y010988D01*
X010298Y011180D02*
X010435Y011180D01*
X010435Y011680D02*
X010298Y011680D01*
X010180Y011872D02*
X010180Y012362D01*
X010112Y012180D02*
X010248Y012180D01*
X010680Y012362D02*
X010680Y012498D01*
X010752Y012680D02*
X011448Y012680D01*
X011180Y012605D02*
X011180Y015188D01*
X010680Y015505D02*
X010680Y012802D01*
X009062Y011180D02*
X006798Y011180D01*
X006680Y010988D02*
X006680Y005502D01*
X006498Y005180D02*
X006362Y005180D01*
X006180Y004998D02*
X006180Y004862D01*
X006362Y004680D02*
X006498Y004680D01*
X006680Y004862D02*
X006680Y004998D01*
X006680Y004358D02*
X006680Y004162D01*
X006685Y004180D02*
X006548Y004180D01*
X006680Y003698D02*
X006680Y000180D01*
X006180Y000180D02*
X006180Y003312D01*
X005680Y003312D02*
X005680Y000180D01*
X005180Y000180D02*
X005180Y010638D01*
X005211Y010680D02*
X010649Y010680D01*
X010680Y010638D02*
X010680Y007670D01*
X010680Y007190D02*
X010680Y000180D01*
X010180Y000180D02*
X010180Y003312D01*
X009680Y003312D02*
X009680Y000180D01*
X009180Y000180D02*
X009180Y003698D01*
X009175Y003680D02*
X009312Y003680D01*
X006685Y003680D02*
X006548Y003680D01*
X005312Y003680D02*
X000180Y003680D01*
X000180Y002180D02*
X001050Y002180D01*
X001164Y001680D02*
X000180Y001680D01*
X000180Y001180D02*
X001652Y001180D01*
X001680Y001164D02*
X001680Y000180D01*
X001180Y000180D02*
X001180Y001652D01*
X002180Y001050D02*
X002180Y000180D01*
X004680Y000180D02*
X004680Y010255D01*
X006180Y010764D02*
X006180Y007900D01*
X006400Y007680D02*
X008460Y007680D01*
X008460Y007180D02*
X006400Y007180D01*
X006180Y006960D02*
X006180Y005502D01*
X011180Y007190D02*
X011180Y000180D01*
X011180Y007670D02*
X011180Y010255D01*
X012680Y013430D02*
X012680Y014930D01*
X017680Y017387D02*
X017973Y017680D01*
X017680Y017973D01*
X017973Y017680D02*
X018387Y017680D01*
X018180Y017680D02*
X018180Y017680D01*
X018180Y018180D02*
X018680Y018180D01*
X019019Y018180D02*
X020077Y018180D01*
X020077Y017680D02*
X019170Y017680D01*
X018387Y018680D02*
X017973Y018680D01*
X018180Y018680D02*
X018180Y018680D01*
X020680Y018946D02*
X020680Y019930D01*
X021180Y019930D02*
X021180Y019060D01*
X021680Y018946D02*
X021680Y019930D01*
X004680Y018459D02*
X004680Y018117D01*
X004706Y018180D02*
X003283Y018180D01*
X004180Y019763D02*
X004180Y019930D01*
X001332Y017180D02*
X000180Y017180D01*
D18*
X004930Y015930D03*
M02*
